<svg width="12" height="15" viewBox="0 0 12 15" fill="none" xmlns="http://www.w3.org/2000/svg">
<path d="M11.303 5.67788H10.0413V4.10069C10.0413 3.18043 9.67572 2.29787 9.025 1.64715C8.37428 0.996429 7.49172 0.630859 6.57146 0.630859H5.94058C5.02033 0.630859 4.13776 0.996429 3.48705 1.64715C2.83633 2.29787 2.47076 3.18043 2.47076 4.10069V5.67788H1.209C1.04168 5.67788 0.881217 5.74435 0.762905 5.86266C0.644592 5.98097 0.578125 6.14144 0.578125 6.30876V13.8793C0.578125 14.0466 0.644592 14.2071 0.762905 14.3254C0.881217 14.4437 1.04168 14.5102 1.209 14.5102H11.303C11.4704 14.5102 11.6308 14.4437 11.7491 14.3254C11.8675 14.2071 11.9339 14.0466 11.9339 13.8793V6.30876C11.9339 6.14144 11.8675 5.98097 11.7491 5.86266C11.6308 5.74435 11.4704 5.67788 11.303 5.67788ZM3.73251 4.10069C3.73251 3.51507 3.96515 2.95344 4.37924 2.53934C4.79334 2.12525 5.35497 1.89261 5.94058 1.89261H6.57146C7.15708 1.89261 7.71871 2.12525 8.1328 2.53934C8.5469 2.95344 8.77953 3.51507 8.77953 4.10069V5.67788H3.73251V4.10069ZM10.6722 13.2484H1.83988V6.93963H10.6722V13.2484Z" fill="#8A8A8A"/>
<path d="M3.73343 11.0403C4.25606 11.0403 4.67974 10.6167 4.67974 10.094C4.67974 9.57139 4.25606 9.14771 3.73343 9.14771C3.21079 9.14771 2.78711 9.57139 2.78711 10.094C2.78711 10.6167 3.21079 11.0403 3.73343 11.0403Z" fill="#8A8A8A"/>
<path d="M6.25686 11.0403C6.7795 11.0403 7.20318 10.6167 7.20318 10.094C7.20318 9.57139 6.7795 9.14771 6.25686 9.14771C5.73423 9.14771 5.31055 9.57139 5.31055 10.094C5.31055 10.6167 5.73423 11.0403 6.25686 11.0403Z" fill="#8A8A8A"/>
<path d="M8.7803 11.0403C9.30294 11.0403 9.72662 10.6167 9.72662 10.094C9.72662 9.57139 9.30294 9.14771 8.7803 9.14771C8.25766 9.14771 7.83398 9.57139 7.83398 10.094C7.83398 10.6167 8.25766 11.0403 8.7803 11.0403Z" fill="#8A8A8A"/>
</svg>
