<svg width="250" height="187" viewBox="0 0 250 187" fill="none" xmlns="http://www.w3.org/2000/svg">
<g clip-path="url(#clip0_150_1455)">
<path opacity="0.1" d="M130.05 187C173.95 187 209.539 185.074 209.539 182.699C209.539 180.323 173.95 178.398 130.05 178.398C86.149 178.398 50.5605 180.323 50.5605 182.699C50.5605 185.074 86.149 187 130.05 187Z" fill="#0074AD"/>
<path d="M175.075 165.836L174.391 166.838L170.164 173.126L166.575 174.208L163.897 171.588L164.027 169.859L164.695 160.881C164.695 160.881 148.128 151.138 146.647 149.315C145.166 147.493 139.469 145.841 139.469 145.841C139.469 145.841 130.753 141.797 127.506 134.735C124.259 127.673 132.918 126.591 132.918 126.591L165.447 157.692L175.075 165.836Z" fill="#FFC1C7"/>
<path d="M179.063 169.481L168.752 179.106C168.752 179.106 162.827 180.245 157.529 179.448C154.143 178.938 154.794 177.081 155.685 175.803L155.701 175.78C156.235 175.049 157.015 174.536 157.898 174.336C162.282 173.279 163.795 170.105 163.795 170.105L166.986 172.839L172.512 166.401L176.597 168.319L179.063 169.481Z" fill="#4D44B5"/>
<path opacity="0.1" d="M176.597 168.324L174.17 167.185L174.398 166.839L175.081 165.836L165.447 157.692L132.918 126.595C132.918 126.595 124.259 127.673 127.506 134.735C130.753 141.797 139.469 145.841 139.469 145.841C139.469 145.841 145.166 147.493 146.647 149.315C148.128 151.138 164.706 160.877 164.706 160.877L164.039 169.855L164.007 170.283L163.795 170.103C163.795 170.103 162.282 173.277 157.897 174.334C157.015 174.534 156.234 175.047 155.701 175.778L155.685 175.801C154.773 177.076 154.142 178.933 157.528 179.446C162.826 180.243 168.751 179.104 168.751 179.104L179.062 169.479L176.597 168.324Z" fill="black"/>
<path opacity="0.1" d="M2.70117 97.9548C6.65706 114.859 15.0314 129.47 28.264 136.558C55.7706 151.279 117.8 143.686 164.093 134.963C187.486 130.571 208.719 118.436 224.374 100.511L2.70117 97.9548Z" fill="#0074AD"/>
<path opacity="0.1" d="M245.465 18.3889H220.064C219.494 18.3706 218.953 18.1313 218.556 17.7216C218.159 17.312 217.938 16.7642 217.938 16.194C217.938 15.6238 218.159 15.0759 218.556 14.6663C218.953 14.2566 219.494 14.0173 220.064 13.999H224.455C223.873 13.999 223.315 13.7678 222.903 13.3564C222.491 12.945 222.26 12.387 222.26 11.8051C222.26 11.2233 222.491 10.6653 222.903 10.2539C223.315 9.84245 223.873 9.61131 224.455 9.61131H221.319C220.749 9.59295 220.209 9.35365 219.812 8.94402C219.415 8.53438 219.193 7.98654 219.193 7.41634C219.193 6.84614 219.415 6.29829 219.812 5.88866C220.209 5.47903 220.749 5.23973 221.319 5.22136H234.577C231.635 3.85449 228.196 2.88173 224.234 2.37143C188.084 -2.26912 175.177 0.79952 170.624 3.96612C165.007 7.86171 158.741 10.7276 152.043 12.1081C129.739 16.7077 88.0268 22.2412 50.2204 10.3358C31.4299 4.41263 17.4658 14.4182 9.09375 31.1305H249.874C249.56 26.2735 248.618 21.7902 246.891 17.8627C246.494 18.2028 245.988 18.3895 245.465 18.3889Z" fill="#0074AD"/>
<path opacity="0.1" d="M0.544857 62.6711C-0.430782 72.5024 -0.0997668 82.4194 1.52927 92.1638L224.544 100.317C230.754 93.1785 235.966 85.2315 240.04 76.693L0.544857 62.6711ZM88.7501 83.7051H84.359C84.6533 83.6956 84.9465 83.7454 85.2211 83.8514C85.4958 83.9574 85.7463 84.1176 85.9578 84.3224C86.1693 84.5271 86.3375 84.7723 86.4524 85.0433C86.5673 85.3144 86.6264 85.6057 86.6264 85.9001C86.6264 86.1944 86.5673 86.4858 86.4524 86.7568C86.3375 87.0278 86.1693 87.273 85.9578 87.4777C85.7463 87.6825 85.4958 87.8427 85.2211 87.9487C84.9465 88.0548 84.6533 88.1045 84.359 88.095H58.9579C58.3879 88.0767 57.8473 87.8374 57.4506 87.4277C57.0538 87.0181 56.832 86.4703 56.832 85.9001C56.832 85.3299 57.0538 84.782 57.4506 84.3724C57.8473 83.9627 58.3879 83.7234 58.9579 83.7051H63.3491C62.7671 83.7051 62.2089 83.4739 61.7974 83.0625C61.3858 82.6511 61.1547 82.0931 61.1547 81.5112C61.1547 80.9294 61.3858 80.3714 61.7974 79.96C62.2089 79.5485 62.7671 79.3174 63.3491 79.3174H60.2135C59.6435 79.299 59.1029 79.0597 58.7062 78.6501C58.3094 78.2405 58.0876 77.6926 58.0876 77.1224C58.0876 76.5522 58.3094 76.0044 58.7062 75.5948C59.1029 75.1851 59.6435 74.9458 60.2135 74.9275H85.6146C86.1846 74.9458 86.7252 75.1851 87.122 75.5948C87.5187 76.0044 87.7405 76.5522 87.7405 77.1224C87.7405 77.6926 87.5187 78.2405 87.122 78.6501C86.7252 79.0597 86.1846 79.299 85.6146 79.3174H88.7501C89.3321 79.3174 89.8903 79.5485 90.3018 79.96C90.7133 80.3714 90.9445 80.9294 90.9445 81.5112C90.9445 82.0931 90.7133 82.6511 90.3018 83.0625C89.8903 83.4739 89.3321 83.7051 88.7501 83.7051Z" fill="#0074AD"/>
<path opacity="0.1" d="M249.887 31.2764L6.40876 37.1995C3.4464 44.8107 1.49353 53.4061 0.582031 62.3341H245.621C247.221 57.0948 248.404 51.7374 249.16 46.312C249.889 41.07 250.181 35.9989 249.887 31.2764ZM50.0124 50.6723H45.6212C45.9155 50.6629 46.2087 50.7126 46.4833 50.8187C46.758 50.9247 47.0085 51.0849 47.2201 51.2896C47.4316 51.4944 47.5998 51.7396 47.7146 52.0106C47.8295 52.2816 47.8887 52.573 47.8887 52.8673C47.8887 53.1617 47.8295 53.453 47.7146 53.724C47.5998 53.9951 47.4316 54.2402 47.2201 54.445C47.0085 54.6498 46.758 54.8099 46.4833 54.916C46.2087 55.022 45.9155 55.0718 45.6212 55.0623H20.2202C19.6501 55.0439 19.1095 54.8046 18.7128 54.395C18.316 53.9854 18.0942 53.4375 18.0942 52.8673C18.0942 52.2971 18.316 51.7493 18.7128 51.3396C19.1095 50.93 19.6501 50.6907 20.2202 50.6723H24.6113C24.0293 50.6723 23.4711 50.4412 23.0596 50.0298C22.6481 49.6184 22.4169 49.0603 22.4169 48.4785C22.4169 47.8967 22.6481 47.3386 23.0596 46.9272C23.4711 46.5158 24.0293 46.2847 24.6113 46.2847H21.4758C20.9057 46.2663 20.3651 46.027 19.9684 45.6174C19.5716 45.2077 19.3498 44.6599 19.3498 44.0897C19.3498 43.5195 19.5716 42.9716 19.9684 42.562C20.3651 42.1524 20.9057 41.9131 21.4758 41.8947H46.8768C47.4469 41.9131 47.9874 42.1524 48.3842 42.562C48.7809 42.9716 49.0028 43.5195 49.0028 44.0897C49.0028 44.6599 48.7809 45.2077 48.3842 45.6174C47.9874 46.027 47.4469 46.2663 46.8768 46.2847H50.0124C50.5943 46.2847 51.1525 46.5158 51.564 46.9272C51.9756 47.3386 52.2068 47.8967 52.2068 48.4785C52.2068 49.0603 51.9756 49.6184 51.564 50.0298C51.1525 50.4412 50.5943 50.6723 50.0124 50.6723Z" fill="#0074AD"/>
<g opacity="0.1">
<path d="M181.686 112.453C181.686 112.453 188.112 96.6199 200.111 90.7469C205.161 88.316 209.284 84.3125 211.863 79.338C213.069 76.9674 214.055 74.4914 214.809 71.9409" stroke="#535461" stroke-width="2" stroke-miterlimit="10"/>
<path d="M222.35 68.1957C221.099 69.7676 214.625 72.0685 214.625 72.0685C214.625 72.0685 215.404 65.2455 216.655 63.6736C216.941 63.2663 217.306 62.9216 217.73 62.6608C218.154 62.4001 218.626 62.2287 219.119 62.1574C219.611 62.086 220.113 62.1161 220.593 62.2458C221.073 62.3755 221.522 62.6022 221.911 62.9117C222.3 63.2212 222.622 63.6072 222.857 64.0457C223.091 64.4843 223.234 64.9662 223.275 65.4618C223.316 65.9574 223.256 66.4563 223.097 66.9276C222.938 67.399 222.685 67.8328 222.352 68.2026L222.35 68.1957Z" fill="#0074AD"/>
<path d="M220.129 80.6457C218.224 81.2859 211.543 79.6934 211.543 79.6934C211.543 79.6934 215.907 74.39 217.812 73.7498C218.273 73.5607 218.769 73.4683 219.267 73.4783C219.766 73.4882 220.257 73.6003 220.711 73.8076C221.164 74.0149 221.57 74.3131 221.904 74.6836C222.238 75.0541 222.492 75.4891 222.651 75.9617C222.809 76.4343 222.87 76.9344 222.827 77.4312C222.785 77.928 222.641 78.4108 222.405 78.8498C222.169 79.2889 221.845 79.6747 221.453 79.9836C221.062 80.2925 220.611 80.5179 220.129 80.6457Z" fill="#0074AD"/>
<path d="M208.082 95.3646C206.116 94.9546 201.15 90.2092 201.15 90.2092C201.15 90.2092 207.597 87.8331 209.563 88.2409C210.458 88.4856 211.226 89.0623 211.711 89.8534C212.195 90.6444 212.36 91.5904 212.171 92.4986C211.982 93.4068 211.454 94.2088 210.695 94.7413C209.935 95.2738 209.001 95.4967 208.082 95.3646Z" fill="#0074AD"/>
<path d="M196.462 104.448C194.455 104.379 188.758 100.538 188.758 100.538C188.758 100.538 194.71 97.1074 196.717 97.178C197.216 97.1625 197.713 97.2495 198.177 97.4336C198.641 97.6178 199.062 97.8953 199.414 98.2488C199.767 98.6024 200.043 99.0244 200.225 99.4889C200.407 99.9534 200.493 100.45 200.475 100.949C200.458 101.448 200.338 101.938 200.123 102.388C199.909 102.839 199.604 103.24 199.228 103.568C198.851 103.896 198.412 104.144 197.936 104.295C197.46 104.446 196.959 104.498 196.462 104.448Z" fill="#0074AD"/>
<path d="M205.321 75.2442C205.577 77.2375 209.929 82.5501 209.929 82.5501C209.929 82.5501 212.796 76.3081 212.538 74.317C212.36 73.4091 211.843 72.603 211.093 72.062C210.342 71.521 209.414 71.2856 208.496 71.4035C207.578 71.5214 206.739 71.9839 206.15 72.697C205.56 73.4102 205.264 74.3208 205.321 75.2442Z" fill="#0074AD"/>
<path d="M191.864 86.0403C192.704 87.8628 198.449 91.6331 198.449 91.6331C198.449 91.6331 199.313 84.8215 198.472 82.9968C198.03 82.1843 197.296 81.5702 196.418 81.2789C195.54 80.9875 194.584 81.0407 193.743 81.4277C192.903 81.8147 192.242 82.5065 191.893 83.3629C191.543 84.2194 191.533 85.1765 191.864 86.0403Z" fill="#0074AD"/>
<path d="M180.223 98.3284C180.745 100.269 185.767 104.953 185.767 104.953C185.767 104.953 187.773 98.3854 187.253 96.4444C186.958 95.5647 186.339 94.8306 185.521 94.3917C184.703 93.9529 183.749 93.8423 182.852 94.0826C181.956 94.3228 181.185 94.8958 180.696 95.6847C180.208 96.4736 180.039 97.4191 180.223 98.3284Z" fill="#0074AD"/>
<path opacity="0.25" d="M222.35 68.1957C221.099 69.7676 214.625 72.0685 214.625 72.0685C214.625 72.0685 215.404 65.2455 216.655 63.6736C216.941 63.2663 217.306 62.9216 217.73 62.6608C218.154 62.4001 218.626 62.2287 219.119 62.1574C219.611 62.086 220.113 62.1161 220.593 62.2458C221.073 62.3755 221.522 62.6022 221.911 62.9117C222.3 63.2212 222.622 63.6072 222.857 64.0457C223.091 64.4843 223.234 64.9662 223.275 65.4618C223.316 65.9574 223.256 66.4563 223.097 66.9276C222.938 67.399 222.685 67.8328 222.352 68.2026L222.35 68.1957Z" fill="black"/>
<path opacity="0.25" d="M220.129 80.6457C218.224 81.2859 211.543 79.6934 211.543 79.6934C211.543 79.6934 215.907 74.39 217.812 73.7498C218.273 73.5607 218.769 73.4683 219.267 73.4783C219.766 73.4882 220.257 73.6003 220.711 73.8076C221.164 74.0149 221.57 74.3131 221.904 74.6836C222.238 75.0541 222.492 75.4891 222.651 75.9617C222.809 76.4343 222.87 76.9344 222.827 77.4312C222.785 77.928 222.641 78.4108 222.405 78.8498C222.169 79.2889 221.845 79.6747 221.453 79.9836C221.062 80.2925 220.611 80.5179 220.129 80.6457Z" fill="black"/>
<path opacity="0.25" d="M208.082 95.3646C206.116 94.9546 201.15 90.2092 201.15 90.2092C201.15 90.2092 207.597 87.8331 209.563 88.2409C210.458 88.4856 211.226 89.0623 211.711 89.8534C212.195 90.6444 212.36 91.5904 212.171 92.4986C211.982 93.4068 211.454 94.2088 210.695 94.7413C209.935 95.2738 209.001 95.4967 208.082 95.3646Z" fill="black"/>
<path opacity="0.25" d="M196.462 104.448C194.455 104.379 188.758 100.538 188.758 100.538C188.758 100.538 194.71 97.1074 196.717 97.178C197.216 97.1625 197.713 97.2495 198.177 97.4336C198.641 97.6178 199.062 97.8953 199.414 98.2488C199.767 98.6024 200.043 99.0244 200.225 99.4889C200.407 99.9534 200.493 100.45 200.475 100.949C200.458 101.448 200.338 101.938 200.123 102.388C199.909 102.839 199.604 103.24 199.228 103.568C198.851 103.896 198.412 104.144 197.936 104.295C197.46 104.446 196.959 104.498 196.462 104.448Z" fill="black"/>
<path opacity="0.25" d="M205.321 75.2442C205.577 77.2375 209.929 82.5501 209.929 82.5501C209.929 82.5501 212.796 76.3081 212.538 74.317C212.36 73.4091 211.843 72.603 211.093 72.062C210.342 71.521 209.414 71.2856 208.496 71.4035C207.578 71.5214 206.739 71.9839 206.15 72.697C205.56 73.4102 205.264 74.3208 205.321 75.2442Z" fill="black"/>
<path opacity="0.25" d="M191.864 86.0403C192.704 87.8628 198.449 91.6331 198.449 91.6331C198.449 91.6331 199.313 84.8215 198.472 82.9968C198.03 82.1843 197.296 81.5702 196.418 81.2789C195.54 80.9875 194.584 81.0407 193.743 81.4277C192.903 81.8147 192.242 82.5065 191.893 83.3629C191.543 84.2194 191.533 85.1765 191.864 86.0403Z" fill="black"/>
<path opacity="0.25" d="M180.223 98.3284C180.745 100.269 185.767 104.953 185.767 104.953C185.767 104.953 187.773 98.3854 187.253 96.4444C186.958 95.5647 186.339 94.8306 185.521 94.3917C184.703 93.9529 183.749 93.8423 182.852 94.0826C181.956 94.3228 181.185 94.8958 180.696 95.6847C180.208 96.4736 180.039 97.4191 180.223 98.3284Z" fill="black"/>
</g>
<g opacity="0.1">
<path d="M171.455 87.1223C171.455 87.1223 172.266 70.0546 181.639 60.5343C185.595 56.5672 188.158 51.424 188.942 45.8768C189.291 43.2381 189.398 40.573 189.261 37.9148" stroke="#535461" stroke-width="2" stroke-miterlimit="10"/>
<path d="M195.138 31.8779C194.48 33.7778 189.134 38.088 189.134 38.088C189.134 38.088 187.607 31.3926 188.263 29.4949C188.623 28.6421 189.294 27.958 190.14 27.5814C190.985 27.2049 191.943 27.164 192.817 27.4672C193.692 27.7704 194.419 28.3949 194.85 29.214C195.281 30.0331 195.384 30.9855 195.138 31.8779Z" fill="#0074AD"/>
<path d="M197.173 44.3619C195.578 45.5966 188.756 46.312 188.756 46.312C188.756 46.312 191.114 39.8603 192.698 38.6256C193.464 38.1041 194.399 37.8936 195.314 38.0367C196.23 38.1799 197.056 38.6659 197.626 39.3962C198.195 40.1264 198.466 41.0461 198.382 41.9684C198.298 42.8907 197.866 43.7465 197.173 44.3619Z" fill="#0074AD"/>
<path d="M190.693 62.2408C188.701 62.5073 182.441 59.6756 182.441 59.6756C182.441 59.6756 187.735 55.297 189.733 55.0305C190.657 54.9673 191.571 55.2579 192.288 55.8434C193.005 56.4289 193.473 57.2654 193.596 58.183C193.719 59.1006 193.488 60.0307 192.95 60.7843C192.412 61.5379 191.608 62.0586 190.7 62.2408H190.693Z" fill="#0074AD"/>
<path d="M182.739 74.6634C180.823 75.2648 174.176 73.5243 174.176 73.5243C174.176 73.5243 178.651 68.3165 180.57 67.7174C181.036 67.5354 181.534 67.4513 182.034 67.4701C182.534 67.489 183.024 67.6104 183.475 67.8269C183.926 68.0434 184.327 68.3503 184.655 68.7285C184.982 69.1068 185.227 69.5483 185.377 70.0255C185.526 70.5028 185.575 71.0056 185.522 71.5028C185.468 71.9999 185.313 72.4807 185.065 72.9153C184.818 73.3499 184.484 73.7289 184.084 74.0289C183.683 74.3288 183.226 74.5433 182.739 74.6588V74.6634Z" fill="#0074AD"/>
<path d="M181.411 44.1752C182.323 45.9704 188.183 49.5402 188.183 49.5402C188.183 49.5402 188.815 42.7058 187.912 40.9084C187.443 40.1106 186.688 39.5211 185.801 39.2593C184.913 38.9975 183.959 39.083 183.132 39.4986C182.305 39.9142 181.667 40.6286 181.347 41.4971C181.028 42.3655 181.05 43.323 181.411 44.1752Z" fill="#0074AD"/>
<path d="M172.296 58.8235C173.695 60.2656 180.363 61.9172 180.363 61.9172C180.363 61.9172 178.92 55.2013 177.521 53.7592C176.835 53.1355 175.937 52.7965 175.01 52.8113C174.083 52.826 173.196 53.1934 172.53 53.8387C171.864 54.484 171.469 55.3587 171.426 56.2848C171.382 57.2108 171.693 58.1187 172.296 58.8235Z" fill="#0074AD"/>
<path d="M165.391 74.2738C166.531 75.9323 172.82 78.6866 172.82 78.6866C172.82 78.6866 172.531 71.8249 171.398 70.1664C170.825 69.4438 170 68.965 169.088 68.8265C168.176 68.688 167.246 68.9001 166.484 69.42C165.723 69.9399 165.187 70.7291 164.984 71.6285C164.781 72.5278 164.927 73.4707 165.391 74.267V74.2738Z" fill="#0074AD"/>
</g>
<path opacity="0.1" d="M98.2155 19.4779C98.2155 19.4779 92.7853 19.1521 93.4302 22.9566C93.3971 23.1496 93.4261 23.3482 93.5129 23.5237C93.5996 23.6993 93.7398 23.8429 93.9132 23.9339C93.9132 23.9339 93.9133 23.6514 94.4693 23.7471C94.6641 23.781 94.8623 23.7909 95.0595 23.7767C95.3262 23.7582 95.5798 23.6535 95.7818 23.4783C95.7818 23.4783 97.3086 22.8473 97.901 20.3527C97.901 20.3527 98.3408 19.8082 98.3226 19.6693L97.4111 20.0611C97.4111 20.0611 97.7233 20.7218 97.4772 21.2708C97.4772 21.2708 97.4476 20.0839 97.2721 20.1112C97.2357 20.1112 96.7959 20.339 96.7959 20.339C96.7959 20.339 97.3359 21.4918 96.928 22.3278C96.928 22.3278 97.083 20.9086 96.6272 20.4233L95.9823 20.7992C95.9823 20.7992 96.6113 21.9884 96.1851 22.9589C96.1851 22.9589 96.2945 21.4713 95.8479 20.8904L95.2623 21.346C95.2623 21.346 95.8547 22.5192 95.4901 23.3234C95.4901 23.3234 95.4446 21.5897 95.1324 21.4599C94.9113 21.6471 94.7139 21.8605 94.5445 22.0955C94.5445 22.0955 94.9478 22.9475 94.6971 23.3963C94.6971 23.3963 94.5445 22.2413 94.4169 22.2367C94.4169 22.2367 93.9064 23.0022 93.854 23.5261C93.8785 23.0399 94.0302 22.5686 94.2938 22.1593C93.9996 22.215 93.7281 22.3551 93.5122 22.5625C93.5122 22.5625 93.592 22.0226 94.4237 21.9747C94.4237 21.9747 94.8453 21.3938 94.9569 21.3596C94.9569 21.3596 94.1343 21.289 93.6375 21.5123C93.6375 21.5123 94.075 21.002 95.1073 21.2321L95.6861 20.7628C95.6861 20.7628 94.6037 20.6147 94.1434 20.7764C94.1434 20.7764 94.6721 20.3208 95.8411 20.6557L96.47 20.2798C95.9863 20.1727 95.4906 20.1298 94.9956 20.1522C94.9956 20.1522 95.5767 19.8401 96.6546 20.1773L97.1103 19.9768C97.1103 19.9768 96.4267 19.8447 96.2353 19.8219C96.0439 19.7991 96.0279 19.7467 96.0279 19.7467C96.4559 19.6754 96.8953 19.7243 97.2972 19.888C97.2972 19.888 98.2337 19.5394 98.2155 19.4779Z" fill="#0074AD"/>
<path opacity="0.1" d="M83.9548 37.9923C83.9548 37.9923 82.1 43.1067 85.9305 43.5737C86.1066 43.6599 86.3054 43.6883 86.4986 43.6547C86.6918 43.6212 86.8694 43.5274 87.0061 43.3869C87.0061 43.3869 86.7372 43.298 86.9856 42.8014C87.0702 42.6236 87.1329 42.4362 87.1724 42.2432C87.2308 41.9825 87.2028 41.7099 87.0927 41.4664C87.0927 41.4664 86.9218 39.8239 84.6977 38.5481C84.6977 38.5481 84.2989 37.9718 84.1599 37.949L84.2762 38.9377C84.2762 38.9377 84.9985 38.8261 85.4565 39.2179C85.4565 39.2179 84.3172 38.9103 84.2853 39.0858C84.2853 39.1222 84.3696 39.6075 84.3696 39.6075C84.3696 39.6075 85.6274 39.4184 86.3156 40.0449C86.3156 40.0449 84.9985 39.4958 84.4038 39.792L84.5815 40.5187C84.5815 40.5187 85.9009 40.2522 86.7098 40.9379C86.7098 40.9379 85.313 40.4094 84.6294 40.6736L84.9005 41.3571C84.9005 41.3571 86.1926 41.1292 86.8625 41.6965C86.8625 41.6965 85.1876 41.2409 84.9734 41.512C85.0902 41.7777 85.2395 42.0279 85.4178 42.2569C85.4178 42.2569 86.3475 42.1111 86.7076 42.4847C86.7076 42.4847 85.5568 42.3048 85.5158 42.4255C85.5158 42.4255 86.1037 43.1317 86.5913 43.3367C86.1341 43.1757 85.7272 42.8976 85.411 42.5303C85.3833 42.8244 85.441 43.1202 85.5773 43.3823C85.5773 43.3823 85.0828 43.1545 85.272 42.348C85.272 42.348 84.8344 41.7785 84.8322 41.6646C84.8322 41.6646 84.5336 42.4346 84.6043 42.9745C84.6043 42.9745 84.2397 42.4095 84.7547 41.4846L84.4676 40.8012C84.4676 40.8012 84.0118 41.7967 84.0437 42.282C84.0437 42.282 83.7612 41.6487 84.4083 40.6212L84.226 39.9127C83.9881 40.3433 83.8066 40.8027 83.686 41.2796C83.686 41.2796 83.5515 40.6326 84.1827 39.6986L84.1166 39.2088C84.1166 39.2088 83.7976 39.8193 83.7201 40.0038C83.6427 40.1884 83.588 40.1815 83.588 40.1815C83.6419 39.7507 83.8138 39.3431 84.0847 39.0037C84.0847 39.0037 84.0187 37.9945 83.9548 37.9923Z" fill="#0074AD"/>
<path opacity="0.1" d="M119.969 33.6845C119.969 33.6845 118.112 38.7966 121.945 39.2636C122.121 39.3499 122.319 39.3786 122.512 39.3454C122.704 39.3123 122.882 39.2191 123.018 39.0791C123.018 39.0791 122.752 38.9902 122.998 38.4913C123.085 38.3139 123.151 38.1265 123.194 37.9332C123.253 37.673 123.224 37.4007 123.112 37.1586C123.112 37.1586 122.941 35.5161 120.717 34.2381C120.717 34.2381 120.32 33.6617 120.181 33.6389L120.295 34.6299C120.295 34.6299 121.02 34.516 121.476 34.9078C121.476 34.9078 120.336 34.6003 120.307 34.778C120.307 34.8122 120.391 35.2997 120.391 35.2997C120.391 35.2997 121.649 35.1083 122.335 35.7371C122.335 35.7371 121.02 35.1858 120.423 35.4842L120.601 36.2086C120.601 36.2086 121.92 35.9421 122.731 36.6278C122.731 36.6278 121.334 36.0993 120.651 36.3658L120.922 37.0493C120.922 37.0493 122.214 36.8215 122.884 37.3887C122.884 37.3887 121.209 36.9331 120.995 37.2019C121.111 37.4672 121.26 37.7173 121.437 37.9469C121.437 37.9469 122.369 37.8011 122.729 38.1747C122.729 38.1747 121.576 37.9947 121.537 38.1132C121.537 38.1132 122.125 38.8194 122.613 39.0244C122.155 38.8624 121.747 38.5836 121.43 38.2157C121.4 38.5135 121.458 38.8137 121.596 39.0791C121.596 39.0791 121.1 38.8513 121.289 38.0425C121.289 38.0425 120.854 37.4753 120.851 37.3591C120.851 37.3591 120.55 38.1268 120.623 38.669C120.623 38.669 120.259 38.1018 120.776 37.1791L120.487 36.4957C120.487 36.4957 120.031 37.4912 120.065 37.9787C120.065 37.9787 119.783 37.3431 120.43 36.3157L120.247 35.6072C120.009 36.0375 119.827 36.497 119.707 36.9741C119.707 36.9741 119.571 36.3294 120.202 35.3931L120.136 34.9056C120.136 34.9056 119.817 35.5161 119.741 35.6983C119.666 35.8806 119.609 35.8783 119.609 35.8783C119.662 35.4471 119.834 35.0392 120.106 34.7005C120.106 34.7005 120.031 33.6845 119.969 33.6845Z" fill="#0074AD"/>
<path opacity="0.1" d="M61.1256 27.2784C61.1256 27.2784 59.2684 32.3928 63.1013 32.8575C63.2766 32.9445 63.4751 32.9736 63.668 32.9404C63.861 32.9072 64.0384 32.8136 64.1746 32.673C64.1746 32.673 63.9079 32.5841 64.1541 32.0875C64.2407 31.9096 64.3064 31.7224 64.35 31.5294C64.4077 31.2684 64.3789 30.9957 64.268 30.7525C64.268 30.7525 64.0971 29.11 61.873 27.832C61.873 27.832 61.4765 27.2579 61.3375 27.2351L61.4515 28.2238C61.4515 28.2238 62.1738 28.1122 62.6319 28.504C62.6319 28.504 61.4925 28.1942 61.4629 28.3719C61.4629 28.4083 61.5472 28.8936 61.5472 28.8936C61.5472 28.8936 62.805 28.7045 63.4909 29.331C63.4909 29.331 62.1738 28.7797 61.5791 29.0781L61.7568 29.8048C61.7568 29.8048 63.0762 29.5383 63.8852 30.224C63.8852 30.224 62.4906 29.6955 61.807 29.9597L62.0781 30.6432C62.0781 30.6432 63.3702 30.4154 64.0401 30.9826C64.0401 30.9826 62.363 30.527 62.151 30.7958C62.2676 31.0619 62.4161 31.3128 62.5931 31.543C62.5931 31.543 63.5251 31.395 63.8829 31.7709C63.8829 31.7709 62.7321 31.5909 62.6911 31.7116C62.6911 31.7116 63.2813 32.4156 63.7689 32.6229C63.3105 32.4618 62.9026 32.1829 62.5863 31.8141C62.5561 32.112 62.6139 32.4122 62.7526 32.6776C62.7526 32.6776 62.2559 32.4497 62.445 31.6433C62.445 31.6433 62.0075 31.0738 62.0075 30.9598C62.0075 30.9598 61.7067 31.7299 61.7796 32.2698C61.7796 32.2698 61.415 31.7048 61.93 30.7799L61.6429 30.0964C61.6429 30.0964 61.1871 31.0943 61.219 31.5795C61.219 31.5795 60.9365 30.9462 61.5836 29.9187L61.4036 29.208C61.1651 29.6383 60.9836 30.0978 60.8636 30.5748C60.8636 30.5748 60.7268 29.9301 61.358 28.9938L61.292 28.5063C61.292 28.5063 60.9729 29.1168 60.8977 29.3014C60.8225 29.4859 60.7656 29.4791 60.7656 29.4791C60.818 29.0482 60.9892 28.6405 61.2601 28.3013C61.2601 28.3013 61.1963 27.2807 61.1256 27.2784Z" fill="#0074AD"/>
<path opacity="0.1" d="M118.176 61.9696C118.176 61.9696 119.609 67.2093 123.009 65.3868C123.202 65.3561 123.381 65.2651 123.519 65.1268C123.657 64.9885 123.748 64.81 123.779 64.6168C123.779 64.6168 123.51 64.6965 123.424 64.1475C123.393 63.9526 123.338 63.7622 123.262 63.5803C123.159 63.3342 122.979 63.128 122.749 62.9925C122.749 62.9925 121.662 61.7509 119.103 61.9879C119.103 61.9879 118.447 61.7464 118.319 61.8079L118.985 62.5506C118.985 62.5506 119.509 62.0425 120.108 62.0949C120.108 62.0949 118.994 62.5027 119.078 62.6599C119.094 62.6918 119.447 63.0381 119.447 63.0381C119.447 63.0381 120.359 62.1587 121.289 62.2749C121.289 62.2749 119.896 62.5847 119.579 63.1702L120.145 63.6623C120.145 63.6623 121.07 62.6827 122.125 62.7761C122.125 62.7761 120.68 63.1497 120.275 63.7602L120.894 64.168C120.894 64.168 121.806 63.2317 122.692 63.3137C122.692 63.3137 121.067 63.9151 121.042 64.25C121.291 64.4001 121.558 64.5195 121.835 64.6054C121.835 64.6054 122.519 63.9493 123.016 64.0427C123.016 64.0427 121.972 64.5576 122.009 64.6806C122.009 64.6806 122.895 64.9084 123.41 64.7991C122.943 64.9312 122.45 64.9382 121.979 64.8196C122.125 65.0802 122.345 65.2924 122.61 65.4301C122.61 65.4301 122.072 65.5281 121.763 64.7603C121.763 64.7603 121.079 64.5485 121.008 64.4528C121.008 64.4528 121.206 65.2524 121.578 65.6534C121.578 65.6534 120.954 65.4028 120.842 64.3503L120.215 63.9607C120.215 63.9607 120.42 65.0337 120.723 65.4164C120.723 65.4164 120.126 65.061 120.063 63.8491L119.504 63.3752C119.56 63.8668 119.679 64.3492 119.857 64.8105C119.857 64.8105 119.374 64.3548 119.352 63.2317L119.014 62.8718C119.014 62.8718 119.106 63.5552 119.151 63.7488C119.197 63.9425 119.151 63.9767 119.151 63.9767C118.945 63.5941 118.85 63.1619 118.875 62.7282C118.875 62.7282 118.228 61.9332 118.176 61.9696Z" fill="#0074AD"/>
<path d="M185.828 91.5259C186.325 92.1002 186.873 92.6279 187.466 93.1024L191.905 96.8841C192.696 97.5561 193.5 98.251 194.503 98.5676C195.096 98.7541 195.724 98.8019 196.339 98.7075C196.954 98.6131 197.539 98.379 198.049 98.0232L197.973 97.9981L198.049 97.948C197.299 97.7065 196.531 97.4559 195.913 96.9707C195.659 96.7802 195.445 96.5412 195.284 96.2675C195.123 95.9937 195.018 95.6907 194.975 95.376C194.975 95.3441 194.975 95.3145 194.975 95.2826C194.976 95.1962 194.985 95.1102 195 95.0251C195.956 94.9437 196.876 94.6199 197.673 94.0843L197.595 94.0569L197.673 94.0091C195.307 93.2505 193.669 91.0316 192.926 88.6828C192.183 86.3341 192.181 83.8327 192.101 81.3746C192.021 78.9165 191.839 76.3901 190.777 74.1666C190.378 73.3328 189.866 72.54 189.672 71.6379C189.619 71.3701 189.594 71.0976 189.597 70.8246C189.613 69.9475 189.868 69.0659 190.103 68.2093C190.624 66.2963 191.041 64.3562 191.351 62.3978C191.474 61.7017 191.541 60.9972 191.554 60.2905C191.576 59.6009 191.465 58.9135 191.228 58.2653C190.185 55.5543 186.557 54.2763 186.003 51.4309C185.938 51.048 185.911 50.6596 185.921 50.2713C185.921 50.0572 185.921 49.8453 185.921 49.6335C185.921 49.4216 185.921 49.1778 185.903 48.9683C185.746 46.9658 184.506 45.2276 183.31 43.6033C181.87 41.6486 180.347 39.6165 178.135 38.5754C176.417 37.7622 174.12 37.4933 172.071 37.6756C171.152 36.8827 170.144 36.1985 169.068 35.6367C167.502 34.7664 165.877 33.9098 164.143 33.7185C161.944 33.477 159.77 34.3199 157.565 34.4611C154.566 34.6548 151.622 33.5499 148.623 33.3221C145.624 33.0943 142.172 34.1035 140.832 37.122C140.518 37.8549 140.327 38.6347 140.267 39.4297C140.253 39.5824 140.244 39.7327 140.237 39.8854V39.9013C140.215 40.5177 140.232 41.1348 140.29 41.7489V41.8195C140.29 41.9425 140.312 42.0655 140.326 42.1886C140.326 42.225 140.326 42.2592 140.337 42.2956C140.337 42.4095 140.362 42.5234 140.376 42.6373L140.39 42.7444C140.408 42.8879 140.429 43.0315 140.447 43.175C140.481 43.4705 140.545 43.762 140.636 44.0452C140.692 44.2089 140.773 44.3627 140.877 44.5009C141.203 44.9155 141.693 45.0385 142.199 45.1159L142.598 45.1729C142.557 45.2549 142.514 45.3369 142.475 45.4212C141.571 47.3269 141.103 49.4105 141.108 51.5198C141.108 58.6867 146.415 64.6281 153.349 65.7079L153.766 66.2273C156.323 69.4304 159.531 73.7064 161.058 76.7842C159.294 78.9735 157.23 82.8554 156.642 89.3663L155.769 91.4029C153.939 94.0342 153.467 97.8295 153.939 101.361C153.424 103.27 152.836 105.669 152.428 107.653C149.395 106.981 139.043 105.318 136.596 103.703L129.418 100.322C129.418 100.322 120.075 93.7972 115.048 95.9751C113.127 93.615 110.229 91.1432 108.98 90.2092C106.838 88.6031 101.51 82.3291 101.51 82.3291L93.1631 71.2529C93.1403 69.9703 93.0035 68.8745 92.6526 68.403C91.6682 67.0862 86.4567 64.1634 85.4154 64.7944C84.374 65.4254 83.5035 63.4275 83.5035 63.4275L83.4237 63.3842C83.2278 63.2703 82.6718 62.956 81.8993 62.5413C81.8586 61.6167 81.8815 60.6904 81.9676 59.7689C81.9836 59.6139 82.0041 59.459 82.0269 59.3132C84.7937 59.2134 87.4522 58.2126 89.5978 56.4632C91.7433 54.7138 93.2585 52.3116 93.9128 49.6221C93.9492 49.4786 93.9743 49.3305 94.0039 49.1847C94.3774 49.2714 94.767 49.2608 95.1353 49.1539C95.5035 49.047 95.8382 48.8474 96.1072 48.5741C96.8364 47.7905 96.8683 46.5853 96.6358 45.5465C96.4034 44.5077 95.9522 43.5121 95.8383 42.4505C95.6947 41.0039 96.2052 39.489 95.7357 38.1221C95.3415 36.9557 94.3024 36.1082 93.195 35.5546C92.0875 35.0011 90.8752 34.6776 89.7427 34.1741C88.6625 33.6957 87.6576 33.0533 86.5365 32.6751C85.0827 32.1853 83.5194 32.1671 81.979 32.2035C81.0128 31.814 80.0284 31.4426 78.9939 31.3264C77.8545 31.1966 76.6012 31.4176 75.733 32.1762C75.0494 32.7822 74.4934 33.7549 73.5659 33.7868C73.1102 33.8028 72.7 33.5772 72.2944 33.3836C71.1436 32.8323 69.6875 32.5202 68.6484 33.2515C67.8144 33.8347 67.5091 34.9077 67.3655 35.9078C67.2219 36.9079 67.1969 37.9581 66.7138 38.8534C66.4153 39.4047 65.9618 39.8535 65.5858 40.3547C64.6341 41.6269 64.1854 43.2054 64.3257 44.7879V44.8335C64.271 44.6056 64.2186 44.3938 64.1798 44.1705C64.1798 44.3391 64.1798 44.5054 64.2026 44.674C64.3017 45.4556 64.4717 46.2265 64.7108 46.9772L65.6542 50.2805C66.1327 51.9572 66.6226 53.6589 67.5341 55.1511C67.8897 55.739 68.3193 56.2787 68.8125 56.7572C69.5893 57.5726 70.5832 58.1488 71.6769 58.4179C72.061 58.5041 72.4564 58.5279 72.8481 58.4885C72.8481 58.5364 72.8367 58.5819 72.8276 58.6298C72.7433 58.6138 72.6567 58.5956 72.577 58.5842C72.2068 58.5071 71.8237 58.5172 71.4581 58.6138C69.6579 59.254 69.111 61.2018 68.9515 61.9672C68.915 62.1632 68.9036 62.2816 68.9036 62.2816C68.9036 62.2816 68.9333 62.3955 68.9674 62.5892L68.9515 62.6552C68.915 62.8489 68.9036 62.9696 68.9036 62.9696C68.9036 62.9696 68.9333 63.0835 68.9674 63.2817L68.498 63.2931L60.6478 64.3183C58.8544 64.1953 57.1476 64.1656 56.2339 64.3843C56.1566 64.4014 56.0804 64.4235 56.006 64.4504C54.8666 64.8445 49.6461 68.4462 44.961 71.7609C44.961 71.6698 44.961 71.5809 44.9473 71.4944L43.6142 72.4421C43.6142 72.5309 43.6142 72.6243 43.6142 72.7177C43.2815 72.9455 42.9511 73.187 42.6321 73.4171C41.1988 74.4423 39.8976 75.3672 38.9292 76.0757C37.7488 76.9231 37.0173 77.4585 37.0173 77.4585C37.0173 77.4585 36.5843 77.5998 36.2972 78.2672C35.9281 79.1215 35.8005 80.8392 37.1335 84.22C39.508 90.2365 40.0275 94.3053 40.0275 94.3053C39.3833 94.3725 38.751 94.5257 38.1476 94.7609C37.3249 95.0889 36.4658 95.6448 36.1081 96.5834C35.8784 97.2388 35.8728 97.9519 36.0921 98.6109C37.1905 102.507 55.3725 124.627 55.3725 124.627L55.6004 124.648C56.5329 124.73 57.4708 124.73 58.4032 124.648C59.2532 124.559 60.0485 124.356 60.4131 123.928C60.4131 123.928 64.4442 129.101 70.3643 125.577C70.3233 130.27 70.2048 133.712 70.9499 135.446C72.1098 138.139 72.1098 144.269 72.1098 144.269L73.2127 144.308C73.1535 144.536 73.0874 144.763 73.0168 144.991C72.5086 146.67 71.7589 148.7 70.9659 149.185C69.6306 150.005 70.264 164.102 70.3187 165.319C70.3187 165.367 70.3187 165.392 70.3187 165.392L70.2413 171.087V171.543C70.0757 171.32 69.9272 171.086 69.7969 170.841C69.7969 170.841 67.6503 172.891 67.6116 177.22C67.5729 181.548 67.6503 181.694 67.6503 181.694C67.6503 181.694 76.3095 181.359 77.9343 181.956C79.559 182.553 93.1471 181.437 93.1471 181.437C93.1471 181.437 93.6507 180.129 92.2014 179.124C94.5121 178.958 97.0323 178.516 98.509 177.445C101.756 175.101 91.9576 173.274 91.274 172.903C90.5904 172.532 87.2042 169.545 85.805 168.426C85.3821 168.118 84.8822 167.932 84.3603 167.889L84.5358 162.783C86.6208 160.435 88.879 147.484 88.879 147.484C89.6173 146.868 89.9386 145.372 90.0708 144.458C90.3406 144.369 90.5764 144.199 90.7463 143.971C90.9163 143.743 91.0122 143.469 91.021 143.185C93.4069 143.264 96.408 143.246 96.9845 142.674C97.9689 141.699 97.8527 138.376 97.8527 138.376L96.4627 103.192L96.3715 103.058C96.6013 101.447 96.6059 99.8126 96.3852 98.2009C99.507 99.0916 101.936 99.6976 101.936 99.6976C101.936 99.6976 106.635 100.563 109.932 101.292C109.393 101.865 108.985 102.55 108.738 103.297C105.776 111.726 122.577 111.378 122.577 111.378L130.509 115.045L149.181 121.146C143.181 119.376 136.327 117.294 131.662 115.865C131.203 115.725 130.736 115.612 130.263 115.526C125.984 114.751 121.538 116.31 118.812 119.747C118.781 119.791 118.751 119.829 118.717 119.87C118.064 120.719 117.701 121.755 117.679 122.825C117.658 123.895 117.98 124.944 118.598 125.819C119.312 126.828 120.266 128.17 121.385 129.73C119.018 130.445 115.1 132.439 117.482 137.565C120.781 144.67 129.639 148.727 129.639 148.727C129.639 148.727 135.429 150.39 136.931 152.224C137.352 152.739 138.982 153.881 141.112 155.257C142.479 156.703 143.55 157.649 144.186 157.858C146.725 158.694 151.667 162.706 155.145 165.715L154.623 172.905L154.589 173.338L154.374 173.156C154.374 173.156 152.836 176.345 148.379 177.414C147.485 177.615 146.693 178.131 146.148 178.867L146.132 178.888L146 179.079L145.9 179.004C144.988 180.286 144.564 182.154 148.005 182.669C153.39 183.471 159.399 182.325 159.399 182.325L164.768 177.363C165.364 177.865 166.065 178.229 166.819 178.427C170.831 179.339 182.102 183.699 182.102 183.699C182.102 182.476 192.062 166.738 192.062 166.738C205.507 141.296 190.887 122.283 189.271 120.303L189.127 120.13L189.002 118.016L188.975 117.531C188.975 117.531 196.23 114.323 193.45 112.797C190.67 111.27 189.121 103.933 186.502 100.878C184.451 98.4947 184.57 92.9634 184.353 88.25C184.589 89.4138 185.094 90.5062 185.828 91.4394C185.844 91.4599 185.862 91.4758 185.878 91.4963L185.684 91.3277C185.732 91.4006 185.778 91.4644 185.828 91.5259ZM96.4262 89.5713C97.3605 90.576 98.9921 91.8608 100.072 92.6764C98.7779 92.0454 97.7707 91.5123 96.9936 91.0817C96.8113 90.576 96.6199 90.0702 96.4262 89.5713ZM68.7874 65.7307C68.5642 66.3996 68.1576 66.9924 67.6139 67.4416L67.1581 65.4756C67.7552 65.5712 68.3112 65.6601 68.7874 65.7307ZM159.864 119.747C160.044 119.36 160.231 118.98 160.42 118.608C161.219 118.348 161.924 117.859 162.446 117.2C162.843 118.578 163.137 119.984 163.325 121.406C163.325 121.472 163.325 121.508 163.325 121.508C163.315 122.082 163.229 122.651 163.068 123.201C162.858 123.866 162.475 124.493 161.78 124.568C161.491 124.598 160.067 124.254 157.936 123.673C157.319 123.504 156.639 123.315 155.915 123.11C157.052 123.035 158.633 122.395 159.864 119.747ZM177.695 71.6789C177.269 70.9955 176.38 70.5581 175.293 70.3006C175.095 70.1685 174.787 69.9589 174.395 69.6741C172.481 68.2731 168.66 65.1179 166.907 61.0879C167.396 60.9517 167.873 60.7773 168.334 60.5662C169.05 60.2381 169.726 59.8292 170.348 59.3474C170.558 59.1834 170.763 59.0125 170.959 58.8348C171.461 58.382 171.919 57.8824 172.326 57.3426C172.488 57.1148 172.645 56.8984 172.782 56.6592C173.005 56.3085 173.208 55.9449 173.388 55.5703C173.803 54.6957 174.123 53.7792 174.343 52.8365C174.432 52.4583 174.509 52.0733 174.571 51.6861C174.632 51.2988 174.692 50.9092 174.735 50.5174C174.876 49.1348 174.931 47.7446 174.897 46.3552C174.897 46.2892 174.897 46.2208 174.897 46.1548C174.897 46.1297 174.897 46.1047 174.897 46.0819C174.89 44.6734 174.737 43.2694 174.441 41.8924C174.544 41.9311 174.646 41.9699 174.744 42.0154C174.909 42.0961 175.066 42.1914 175.213 42.3002C175.177 42.2478 175.136 42.1954 175.097 42.143C175.758 42.5713 176.25 43.2388 176.692 43.904C178.717 47.0603 180.011 50.6294 180.478 54.3501C180.944 58.0707 180.573 61.8487 179.39 65.4072C179.058 66.3845 178.659 67.3573 178.57 68.3847C178.249 72.0548 181.76 74.8546 183.066 78.3037C183.72 80.0328 183.823 81.9487 183.909 83.8441C182.925 79.0441 179.327 74.3192 177.702 71.688L177.695 71.6789Z" fill="url(#paint0_linear_150_1455)"/>
<path d="M90.5907 144.251C90.5907 144.251 90.4198 147.099 89.3374 148.01C89.3374 148.01 87.1157 160.881 85.0648 163.216L84.723 164.526L76.1777 163.558L77.8868 152.167L79.4819 141.688L90.5907 144.251Z" fill="#FFC1C8"/>
<path opacity="0.03" d="M90.5907 144.251C90.5907 144.251 90.4198 147.099 89.3374 148.01C89.3374 148.01 87.1157 160.881 85.0648 163.216L84.723 164.526L76.1777 163.558L77.8868 152.167L79.4819 141.688L90.5907 144.251Z" fill="black"/>
<path d="M81.382 163.376L85.0644 163.214L84.8685 169.01L82.0497 170.898L76.9727 169.786L78.8253 162.041L81.382 163.376Z" fill="#FF748F"/>
<path opacity="0.03" d="M81.382 163.376L85.0644 163.214L84.8685 169.01L82.0497 170.898L76.9727 169.786L78.8253 162.041L81.382 163.376Z" fill="black"/>
<path d="M82.05 168.565C82.05 168.565 84.9417 167.713 86.3135 168.825C87.6853 169.937 91.0214 172.901 91.689 173.272C92.3567 173.643 101.984 175.459 98.8055 177.792C95.6267 180.125 87.4643 179.459 87.4643 179.459C87.4643 179.459 82.1252 177.901 81.9771 177.828C81.8289 177.755 78.559 176.161 78.4564 176.049C78.3539 175.937 79.3816 168.531 79.3816 168.531L82.05 168.565Z" fill="#5D618C"/>
<path opacity="0.03" d="M82.05 168.565C82.05 168.565 84.9417 167.713 86.3135 168.825C87.6853 169.937 91.0214 172.901 91.689 173.272C92.3567 173.643 101.984 175.459 98.8055 177.792C95.6267 180.125 87.4643 179.459 87.4643 179.459C87.4643 179.459 82.1252 177.901 81.9771 177.828C81.8289 177.755 78.559 176.161 78.4564 176.049C78.3539 175.937 79.3816 168.531 79.3816 168.531L82.05 168.565Z" fill="black"/>
<path d="M73.6724 91.5692L73.5015 102.158L73.1142 124.746L72.8863 124.944C66.107 130.81 61.3217 124.602 61.3217 124.602C60.9617 125.028 60.1823 125.231 59.3438 125.317C58.4265 125.399 57.5037 125.399 56.5865 125.317L56.3586 125.297C56.3586 125.297 38.466 103.297 37.3836 99.4242C37.1689 98.7691 37.1745 98.0619 37.3995 97.4103C37.7528 96.4854 38.5982 95.9341 39.4071 95.6083C40.0005 95.3738 40.623 95.2205 41.2574 95.1527C41.2574 95.1527 40.7447 91.109 38.409 85.1289C37.0965 81.7687 37.2241 80.0624 37.5864 79.2058C37.869 78.5429 38.2951 78.4016 38.2951 78.4016C38.2951 78.4016 39.0152 77.8708 40.175 77.0347C41.139 76.3308 42.4082 75.4104 43.821 74.3921L45.1313 73.4535C49.9645 69.9862 55.7889 65.9038 56.9807 65.4801C57.0551 65.4529 57.1312 65.4308 57.2086 65.414C59.6537 64.824 67.8594 66.0496 67.8594 66.0496L73.6724 91.5692Z" fill="#0074AD"/>
<path opacity="0.1" d="M73.6711 91.5693L73.5002 102.158C65.3948 99.7682 57.859 83.933 56.8655 82.6846C56.0155 81.6002 56.8883 69.5238 57.2096 65.4187C59.6546 64.8286 67.8604 66.0543 67.8604 66.0543L73.6711 91.5693Z" fill="black"/>
<path d="M166.701 70.9477C166.701 70.9477 160.378 74.194 159.58 86.9515C159.58 86.9515 158.555 93.4442 157.985 94.5832C157.415 95.7223 154.681 106.486 155.023 107.796C155.023 107.796 154.453 109.106 152.345 108.537C150.237 107.967 138.844 106.202 136.28 104.493L129.216 101.133C129.216 101.133 115.43 91.3939 112.524 99.766C109.619 108.138 126.14 107.801 126.14 107.801L133.944 111.446L157.586 119.244C157.586 119.244 160.72 120.668 162.827 116.112C164.176 113.241 165.778 110.497 167.613 107.91C167.613 107.91 172.398 94.4693 172.341 92.1912C172.284 89.9131 177.468 84.5025 177.468 84.5025C177.468 84.5025 178.494 70.1503 170.062 70.4351L166.701 70.9477Z" fill="#FFC1C7"/>
<path opacity="0.03" d="M166.701 70.9477C166.701 70.9477 160.378 74.194 159.58 86.9515C159.58 86.9515 158.555 93.4442 157.985 94.5832C157.415 95.7223 154.681 106.486 155.023 107.796C155.023 107.796 154.453 109.106 152.345 108.537C150.237 107.967 138.844 106.202 136.28 104.493L129.216 101.133C129.216 101.133 115.43 91.3939 112.524 99.766C109.619 108.138 126.14 107.801 126.14 107.801L133.944 111.446L157.586 119.244C157.586 119.244 160.72 120.668 162.827 116.112C164.176 113.241 165.778 110.497 167.613 107.91C167.613 107.91 172.398 94.4693 172.341 92.1912C172.284 89.9131 177.468 84.5025 177.468 84.5025C177.468 84.5025 178.494 70.1503 170.062 70.4351L166.701 70.9477Z" fill="black"/>
<path d="M99.8192 82.0286C100.161 82.4272 101.756 83.2496 101.756 83.2496C101.756 83.2496 106.997 89.4849 109.105 91.0796C111.213 92.6742 118.106 98.7682 116.711 101.076C115.317 103.384 113.749 102.869 113.749 102.869L101.414 94.3259C101.414 94.3259 97.0847 91.2231 96.2029 89.7423C95.321 88.2615 94.2363 85.161 94.2363 85.161L99.8192 82.0286Z" fill="#FFC1C8"/>
<path opacity="0.03" d="M99.8192 82.0286C100.161 82.4272 101.756 83.2496 101.756 83.2496C101.756 83.2496 106.997 89.4849 109.105 91.0796C111.213 92.6742 118.106 98.7682 116.711 101.076C115.317 103.384 113.749 102.869 113.749 102.869L101.414 94.3259C101.414 94.3259 97.0847 91.2231 96.2029 89.7423C95.321 88.2615 94.2363 85.161 94.2363 85.161L99.8192 82.0286Z" fill="black"/>
<path d="M92.8989 71.3782L101.756 83.2518L93.7807 86.3569L90.4766 76.4174L92.8989 71.3782Z" fill="#DCE6F2"/>
<path opacity="0.03" d="M92.8989 71.3782L101.756 83.2518L93.7807 86.3569L90.4766 76.4174L92.8989 71.3782Z" fill="black"/>
<path d="M95.205 101.65L96.8001 103.985L98.1674 138.954C98.1674 138.954 98.2813 142.258 97.3128 143.226C96.3444 144.194 88.4258 143.567 88.4258 143.567C88.4258 143.567 88.7106 107.915 88.8246 107.231C88.9385 106.548 95.205 101.65 95.205 101.65Z" fill="#4D44B5"/>
<path opacity="0.1" d="M95.205 101.65L96.8001 103.985L98.1674 138.954C98.1674 138.954 98.2813 142.258 97.3128 143.226C96.3444 144.194 88.4258 143.567 88.4258 143.567C88.4258 143.567 88.7106 107.915 88.8246 107.231C88.9385 106.548 95.205 101.65 95.205 101.65Z" fill="black"/>
<path d="M84.5391 145.855C84.0203 147.13 83.4111 148.366 82.7161 149.554C82.7161 149.554 81.2349 158.004 80.6037 158.783C80.148 159.353 79.9383 163.604 79.8631 165.82C79.8358 166.622 79.8244 167.158 79.8244 167.158L71.115 171.308L71.0763 165.823C71.0763 165.823 71.0763 165.797 71.0763 165.75C71.0216 164.54 70.3927 150.529 71.7121 149.714C72.4868 149.233 73.2252 147.208 73.7242 145.547C74.1047 144.265 74.344 143.192 74.344 143.192C74.344 143.192 84.0195 142.563 84.8262 143.599C85.1224 143.968 84.9173 144.866 84.5391 145.855Z" fill="#FFC1C8"/>
<path opacity="0.1" d="M84.5395 145.855C80.6155 145.773 75.698 145.606 73.7109 145.536C74.0915 144.253 74.3308 143.18 74.3308 143.18C74.3308 143.18 84.0063 142.551 84.8129 143.588C85.1228 143.968 84.9178 144.866 84.5395 145.855Z" fill="black"/>
<path d="M73.1011 94.0182C73.1011 94.0182 70.4236 108.256 70.9363 117.426C71.4491 126.595 70.5376 133.368 71.6769 136.05C72.8163 138.731 72.8163 144.82 72.8163 144.82C72.8163 144.82 88.3117 145.39 89.9068 145.162C91.5019 144.934 91.445 143.738 91.445 143.738C91.445 143.738 90.3626 134.28 91.388 131.318C92.4134 128.356 92.2425 119.301 92.2425 119.301L96.5721 104.721C96.5721 104.721 97.8824 98.1712 95.1479 95.4944C92.4134 92.8176 73.1011 94.0182 73.1011 94.0182Z" fill="#4D44B5"/>
<path d="M165.049 169.253L164.366 170.256L160.138 176.543L156.549 177.625L153.872 175.006L154.002 173.277L154.67 164.298C154.67 164.298 138.103 154.555 136.622 152.732C135.141 150.91 129.444 149.258 129.444 149.258C129.444 149.258 120.728 145.215 117.481 138.152C114.233 131.09 122.893 130.008 122.893 130.008L155.421 161.109L165.049 169.253Z" fill="#FFC1C7"/>
<path opacity="0.1" d="M164.376 170.253L160.149 176.541L156.56 177.623L153.883 175.003L154.013 173.274L156.959 175.801L162.485 169.365L164.376 170.253Z" fill="black"/>
<path d="M169.036 172.898L158.724 182.523C158.724 182.523 152.8 183.663 147.502 182.865C144.115 182.355 144.767 180.498 145.658 179.22L145.674 179.197C146.208 178.466 146.988 177.953 147.871 177.753C152.255 176.696 153.768 173.523 153.768 173.523L156.958 176.256L162.484 169.818L166.57 171.737L169.036 172.898Z" fill="#4D44B5"/>
<path d="M169.037 173.008L158.726 182.637C158.726 182.637 152.801 183.777 147.503 182.979C144.117 182.469 144.541 180.612 145.432 179.334C146.456 180.146 147.686 180.658 148.984 180.813C151.89 181.097 156.276 180.813 156.276 180.813L166.572 171.853L169.037 173.008Z" fill="white"/>
<path d="M83.9085 57.6433C83.0699 58.0625 82.6848 59.3565 82.5298 60.8327C82.2678 63.3523 82.6916 66.3868 82.6916 66.3868C82.6916 66.3868 71.2979 63.2726 72.5148 62.6643C73.2144 62.3158 73.5858 59.7779 73.7749 57.6889C73.9162 56.1443 73.9572 54.8435 73.9572 54.8435C73.9572 54.8435 86.1872 56.5043 83.9085 57.6433Z" fill="#FFC1C8"/>
<path d="M174.602 71.4649C174.602 71.4649 160.777 84.5254 161.233 80.73C161.296 80.2015 161.114 79.4702 160.754 78.6068C159.476 75.5268 155.941 70.745 153.177 67.248C151.149 64.6829 149.531 62.808 149.531 62.808C149.531 62.808 166.702 48.3806 165.334 56.5819C165.049 58.4519 165.31 60.3644 166.084 62.0904C167.795 66.1181 171.587 69.287 173.481 70.6857C174.164 71.1892 174.602 71.4649 174.602 71.4649Z" fill="#FFC1C7"/>
<path opacity="0.1" d="M163.435 59.0855C163.187 59.3931 162.266 60.4729 161.993 60.7577C159.395 63.4618 159.049 67.3642 155.004 67.3642C154.395 67.3646 153.786 67.3258 153.181 67.248C151.153 64.6829 149.535 62.808 149.535 62.808C149.535 62.808 166.701 48.3806 165.334 56.5819C165.01 58.5274 162.713 57.3815 163.435 59.0855Z" fill="black"/>
<path d="M169.282 52.6315C169.283 55.4555 168.446 58.2161 166.877 60.5643C165.308 62.9125 163.077 64.7427 160.468 65.8236C157.858 66.9045 154.986 67.1874 152.216 66.6366C149.446 66.0858 146.901 64.726 144.903 62.7292C142.906 60.7324 141.546 58.1882 140.995 55.4186C140.444 52.6489 140.727 49.7781 141.808 47.1692C142.889 44.5603 144.72 42.3306 147.069 40.762C149.418 39.1934 152.179 38.3563 155.004 38.3568C156.881 38.3496 158.741 38.7139 160.477 39.4287C162.212 40.1435 163.789 41.1947 165.116 42.5217C166.444 43.8486 167.495 45.4251 168.21 47.1603C168.925 48.8954 169.29 50.7549 169.282 52.6315Z" fill="#FFC1C7"/>
<path opacity="0.1" d="M174.602 71.4647C174.602 71.4647 160.777 84.5252 161.232 80.7299C161.296 80.2013 161.114 79.4701 160.754 78.6066L162.752 73.8955C165.201 71.7512 168.341 70.5622 171.596 70.5466C172.188 70.5461 172.78 70.5864 173.367 70.6674L173.481 70.6856C174.164 71.1891 174.602 71.4647 174.602 71.4647Z" fill="black"/>
<path d="M190.855 167.146C190.855 167.146 181.057 182.788 181.057 184.004C181.057 184.004 169.966 179.676 166.017 178.765C162.068 177.853 158.345 169.577 158.345 169.577C158.345 169.577 147.863 159.704 143.761 158.337C140.281 157.177 123.56 133.596 118.579 126.482C117.969 125.611 117.652 124.569 117.673 123.506C117.694 122.444 118.053 121.415 118.697 120.57L118.79 120.449C120.109 118.791 121.855 117.524 123.84 116.785C125.825 116.045 127.975 115.861 130.057 116.253C130.519 116.338 130.975 116.45 131.424 116.59C138.597 118.807 151.021 122.616 157.287 124.336C159.384 124.912 160.785 125.247 161.07 125.226C161.754 125.156 162.13 124.543 162.337 123.871C162.495 123.324 162.58 122.759 162.59 122.19C162.59 122.19 162.59 122.153 162.59 122.087C162.398 120.639 162.096 119.207 161.688 117.804C160.956 115.298 159.689 112.357 157.586 110.952C155.84 109.788 154.453 107.22 153.726 104.236C152.748 100.206 152.974 95.4103 155.155 92.271L157.262 87.3002L160.788 78.985L162.752 74.3513C165.2 72.2071 168.341 71.018 171.596 71.0024C172.188 71.0019 172.779 71.0422 173.366 71.1232C174.877 71.3328 176.183 71.7861 176.727 72.6792C178.398 75.4129 182.196 80.4248 182.955 85.4367C183.714 90.4485 182.805 98.6498 185.387 101.689C187.968 104.728 189.488 112.016 192.223 113.535C194.957 115.055 187.818 118.242 187.818 118.242L187.845 118.722L187.968 120.825C187.968 120.825 188.018 120.882 188.11 120.996C189.7 122.964 204.072 141.861 190.855 167.146Z" fill="#FF6584"/>
<path d="M188.121 120.996C185.127 121.622 178.577 122.987 175.656 123.586L175.143 123.691C174.972 123.725 174.781 123.757 174.574 123.786C171.639 124.19 165.272 123.992 162.357 123.873C162.516 123.326 162.601 122.761 162.61 122.192C162.61 122.192 162.61 122.155 162.61 122.089C164.828 121.946 170.082 121.527 174.585 120.602C174.952 120.526 175.314 120.447 175.668 120.374C176.178 120.255 176.675 120.13 177.149 119.998C181.187 118.859 185.45 118.709 187.859 118.731L187.982 120.834C187.982 120.834 188.018 120.882 188.121 120.996Z" fill="#4D44B5"/>
<path d="M175.645 120.365V123.586L175.132 123.691C174.961 123.725 174.77 123.757 174.562 123.786V120.611C174.929 120.526 175.292 120.447 175.645 120.365Z" fill="#FF6584"/>
<path opacity="0.1" d="M178.435 126.534C178.435 126.534 172.34 140.487 168.637 141.854C164.934 143.221 155.705 148.062 155.705 148.062C155.705 148.062 161.003 152.732 166.529 147.607C172.055 142.481 180.031 128.812 178.435 126.534Z" fill="black"/>
<path opacity="0.1" d="M185.102 124.659C185.102 124.659 185.672 129.956 184.874 130.924C184.076 131.892 185.102 124.659 185.102 124.659Z" fill="black"/>
<path opacity="0.1" d="M188.406 128.129C188.406 128.129 191.482 160.364 176.215 160.535C176.215 160.54 190.514 146.354 188.406 128.129Z" fill="black"/>
<path opacity="0.1" d="M192.279 135.874C192.279 135.874 196.666 152.789 190.912 154.726C190.912 154.73 193.931 145.96 192.279 135.874Z" fill="black"/>
<path opacity="0.1" d="M164.991 131.546C164.706 131.546 153.142 133.539 155.648 135.134C158.155 136.729 164.991 131.546 164.991 131.546Z" fill="black"/>
<path opacity="0.1" d="M172.967 108.712C172.967 108.712 182.424 117.084 180.601 117.996L172.967 108.712Z" fill="black"/>
<path opacity="0.1" d="M172.17 111.389C172.17 111.389 177.639 118.109 177.012 118.508L172.17 111.389Z" fill="black"/>
<path opacity="0.1" d="M183.848 110.359C183.848 110.359 186.354 113.492 185.955 114.175L183.848 110.359Z" fill="black"/>
<path opacity="0.1" d="M186.355 108.712C186.355 108.712 189.944 111.498 189.147 112.585L186.355 108.712Z" fill="black"/>
<path d="M166.415 74.7681C166.415 74.7681 178.094 75.6793 177.581 85.0766C177.068 94.4739 168.352 96.8659 168.352 96.8659L157.016 93.6196C157.016 93.6196 162.086 75.3946 166.415 74.7681Z" fill="#FFC1C7"/>
<path opacity="0.1" d="M131.433 116.59C138.606 118.806 151.03 122.615 157.297 124.335C156.886 124.545 156.436 124.666 155.976 124.691C155.516 124.717 155.055 124.646 154.624 124.484L130.982 116.686L130.057 116.253C130.522 116.337 130.981 116.45 131.433 116.59Z" fill="black"/>
<path opacity="0.1" d="M171.441 93.3623C170.331 94.843 169.353 96.4377 169.39 97.4355C169.408 98.1531 168.934 99.9825 168.301 102.149C166.669 107.59 164.453 112.839 161.692 117.804C160.961 115.298 159.694 112.357 157.591 110.952C155.845 109.788 154.457 107.22 153.73 104.236C154.284 102.076 154.811 100.26 155.027 99.8276C155.597 98.6885 156.622 92.1958 156.622 92.1958C156.719 90.5505 156.934 88.9143 157.267 87.3002C158.094 83.3522 159.5 80.6936 160.792 78.985C162.351 76.9073 163.755 76.192 163.755 76.192L167.116 75.6794C170.99 75.5496 172.858 78.4952 173.758 81.7233C174.861 85.7351 173.938 90.0271 171.441 93.3623Z" fill="black"/>
<path d="M163.055 75.2761C163.055 75.2761 156.731 78.5225 155.934 91.28C155.934 91.28 154.908 97.7726 154.339 98.9117C153.769 100.051 151.035 110.815 151.376 112.125C151.376 112.125 150.807 113.435 148.699 112.865C146.591 112.296 135.197 110.53 132.634 108.822L125.57 105.461C125.57 105.461 111.783 95.7223 108.878 104.094C105.973 112.467 122.493 112.129 122.493 112.129L130.298 115.774L153.94 123.572C153.94 123.572 157.073 124.996 159.181 120.44C159.707 119.301 160.27 118.219 160.819 117.235C163.663 112.17 165.941 106.809 167.612 101.247C168.257 99.0803 168.72 97.2509 168.702 96.5333C168.676 95.5355 169.656 93.9386 170.752 92.46C173.259 89.1249 174.171 84.8329 173.054 80.8188C172.154 77.5907 170.276 74.6451 166.411 74.7772L163.055 75.2761Z" fill="#FFC1C7"/>
<path opacity="0.1" d="M83.907 57.6434C83.0684 58.0626 82.6833 59.3566 82.5283 60.8328C82.3802 60.8328 82.2321 60.8328 82.084 60.8328C79.0204 60.8386 76.0619 59.7162 73.7734 57.6799C73.9147 56.1353 73.9557 54.8345 73.9557 54.8345C73.9557 54.8345 86.1857 56.5043 83.907 57.6434Z" fill="black"/>
<path d="M94.6169 47.8476C94.6169 50.3257 93.8818 52.7482 92.5047 54.8087C91.1275 56.8692 89.1701 58.4751 86.88 59.4235C84.5899 60.3718 82.0699 60.62 79.6388 60.1365C77.2076 59.653 74.9744 58.4597 73.2216 56.7074C71.4689 54.9551 70.2752 52.7225 69.7916 50.292C69.308 47.8615 69.5562 45.3422 70.5048 43.0527C71.4534 40.7632 73.0598 38.8063 75.1208 37.4295C77.1819 36.0527 79.605 35.3179 82.0838 35.3179C85.4056 35.3251 88.5892 36.6475 90.938 38.9957C93.2869 41.3439 94.6097 44.5267 94.6169 47.8476Z" fill="#FFC1C8"/>
<path opacity="0.1" d="M98.8519 96.9183C98.8519 96.9183 92.3006 99.5381 90.2497 100.449C88.1989 101.361 76.4634 99.2534 76.4634 99.2534C76.4634 99.2534 70.3678 96.1779 70.8805 93.1024C71.3932 90.0269 65.9812 79.9508 65.9812 79.9508C65.9812 79.9508 65.8103 71.0091 68.203 69.3006C70.5956 67.592 69.6841 64.0039 69.6841 64.0039C69.6841 64.0039 69.6955 63.8854 69.732 63.6918C69.8801 62.9309 70.4156 60.9945 72.1907 60.3589C72.5501 60.2623 72.9273 60.2521 73.2914 60.3293C74.9936 60.5867 77.7896 61.8534 80.1025 63.022C82.0166 63.9902 83.6004 64.8901 83.9627 65.0997L84.0402 65.143C84.0402 65.143 84.8947 67.1363 85.9201 66.5098C86.9455 65.8834 92.0727 68.788 93.0412 70.0979C94.0096 71.4078 93.326 77.5588 93.1551 79.0965C92.9842 80.6342 94.1236 85.1905 95.3769 87.8058C96.6302 90.4211 98.8519 96.9183 98.8519 96.9183Z" fill="black"/>
<path d="M98.8519 96.2349C98.8519 96.2349 92.3006 98.8548 90.2497 99.766C88.1989 100.677 76.4634 98.57 76.4634 98.57C76.4634 98.57 70.3678 95.4945 70.8805 92.4191C71.3932 89.3436 65.9812 79.2674 65.9812 79.2674C65.9812 79.2674 65.8103 70.3258 68.203 68.6172C70.5956 66.9086 69.6841 63.3206 69.6841 63.3206C69.6841 63.3206 69.6955 63.2021 69.732 63.0085C69.8801 62.2476 70.4156 60.3112 72.1907 59.6756C72.5501 59.5789 72.9273 59.5688 73.2914 59.6459C74.9936 59.9034 77.7896 61.17 80.1025 62.3387C82.0166 63.3069 83.6004 64.2067 83.9627 64.4163L84.0402 64.4596C84.0402 64.4596 84.8947 66.453 85.9201 65.8265C86.9455 65.2 92.0727 68.1046 93.0412 69.4145C94.0096 70.7245 93.326 76.8754 93.1551 78.4131C92.9842 79.9509 94.1236 84.5071 95.3769 87.1224C96.6302 89.7377 98.8519 96.2349 98.8519 96.2349Z" fill="#DCE6F2"/>
<path d="M77.6406 87.487C77.6406 87.487 72.0189 96.5995 71.1074 97.0938L71.4492 100.283C71.4492 100.283 79.4635 98.611 79.958 96.3716C80.4525 94.1322 80.1859 87.373 80.1859 87.373L77.6406 87.487Z" fill="#4D44B5"/>
<path opacity="0.2" d="M77.6406 87.487C77.6406 87.487 72.0189 96.5995 71.1074 97.0938L71.4492 100.283C71.4492 100.283 79.4635 98.611 79.958 96.3716C80.4525 94.1322 80.1859 87.373 80.1859 87.373L77.6406 87.487Z" fill="black"/>
<path opacity="0.1" d="M85.5508 75.8774C85.5508 75.8774 86.5466 79.7229 88.1144 81.0328C89.6821 82.3428 85.5508 75.8774 85.5508 75.8774Z" fill="black"/>
<path d="M75.7793 86.0153C75.9229 86.2727 80.7355 92.8223 85.8057 95.2417C90.8759 97.6611 102.185 100.511 102.185 100.511C102.185 100.511 111.357 102.22 112.923 102.873C114.488 103.527 116.484 100.595 106.656 96.4104C96.828 92.2254 94.9207 90.3733 94.9207 90.3733C94.9207 90.3733 86.3754 86.2112 85.0082 84.1609C83.6409 82.1106 75.7793 86.0153 75.7793 86.0153Z" fill="#FFC1C8"/>
<path opacity="0.1" d="M79.3691 117.877C79.54 117.763 83.6418 113.378 84.1545 115.257C84.6672 117.137 79.3691 117.877 79.3691 117.877Z" fill="black"/>
<path opacity="0.1" d="M81.7612 109.22C81.7042 109.391 81.1345 114.232 79.4824 114.802L81.7612 109.22Z" fill="black"/>
<path opacity="0.1" d="M83.4705 110.535C83.4705 110.535 81.9893 115.717 80.1094 116.055L83.4705 110.535Z" fill="black"/>
<path opacity="0.1" d="M75.9512 126.078C75.9512 126.078 78.4578 126.135 78.7996 124.541L75.9512 126.078Z" fill="black"/>
<path opacity="0.1" d="M79.3691 136.448C79.711 136.505 85.066 139.923 83.6987 140.606C82.3315 141.29 79.3691 136.448 79.3691 136.448Z" fill="black"/>
<path opacity="0.1" d="M79.8532 165.294V165.82C79.8259 166.622 79.8145 167.157 79.8145 167.157L71.1051 171.308L71.0664 165.822C71.0664 165.822 71.0664 165.797 71.0664 165.75V165.378L74.5529 165.49L79.8532 165.294Z" fill="black"/>
<path d="M81.4825 173.27L74.2179 176.049L70.957 174.122L70.9912 171.484L71.0664 165.82L74.5529 165.932L79.8532 165.747V169.714L81.4825 173.27Z" fill="#FF748F"/>
<path opacity="0.1" d="M81.4766 173.272L74.212 176.051L70.9512 174.124L70.9854 171.486C71.4585 172.106 72.0631 172.613 72.7558 172.972C73.4484 173.33 74.2119 173.531 74.9914 173.559C74.9914 173.559 77.5481 170.37 79.1045 169.445C79.215 169.379 79.3379 169.336 79.4656 169.318C79.5933 169.301 79.7232 169.31 79.8474 169.345V169.716L81.4766 173.272Z" fill="black"/>
<path d="M74.9968 174.012C74.9968 174.012 72.0344 174.051 70.5487 171.233C70.5487 171.233 68.4363 173.272 68.3976 177.571C68.3588 181.87 68.4363 182.018 68.4363 182.018C68.4363 182.018 76.9611 181.685 78.5562 182.277C80.1513 182.87 93.532 181.758 93.532 181.758C93.532 181.758 94.4207 179.423 90.3805 178.607C86.3403 177.792 83.0043 173.493 82.8926 173.308C82.7809 173.124 80.6686 168.98 79.1122 169.891C77.5558 170.803 74.9968 174.012 74.9968 174.012Z" fill="#5D618C"/>
<path opacity="0.1" d="M82.8539 34.0056L82.0039 33.8894L82.5348 33.8757L82.8539 34.0056Z" fill="black"/>
<path opacity="0.1" d="M94.6175 47.8474C94.618 48.8192 94.5056 49.7878 94.2825 50.7338C94.0923 50.6847 93.9104 50.6079 93.7425 50.506C93.4987 50.3488 93.2548 50.1323 92.9677 50.1574C92.7994 50.1839 92.6416 50.2564 92.512 50.367C91.163 51.3534 90.1603 52.9754 88.5196 53.2898C88.684 52.8097 88.7062 52.2923 88.5834 51.7999C88.2355 52.1497 87.8086 52.4109 87.3387 52.5616C86.8689 52.7122 86.3697 52.7479 85.8831 52.6656C86.0017 52.3812 86.0154 52.0639 85.9219 51.7703C84.7665 52.4172 83.5637 52.9754 82.3237 53.4402C82.2804 53.2124 82.2394 53.0028 82.1961 52.7841C80.4506 53.6361 80.5873 56.527 78.8418 57.3791C77.8027 57.8871 76.3352 57.5226 75.6174 58.4384C75.5901 58.4748 75.565 58.5113 75.54 58.55C73.6748 57.4094 72.1406 55.8009 71.0897 53.8841C70.0387 51.9674 69.5076 49.8091 69.5491 47.6237C69.5906 45.4382 70.2033 43.3017 71.3262 41.4262C72.4492 39.5507 74.0434 38.0015 75.9505 36.9325C77.8576 35.8635 80.0112 35.3118 82.1975 35.3323C84.3838 35.3528 86.5267 35.9448 88.4134 37.0494C90.3001 38.154 91.865 39.7328 92.9525 41.629C94.0401 43.5253 94.6125 45.6729 94.613 47.8588L94.6175 47.8474Z" fill="black"/>
<path d="M82.8538 33.5476C81.8011 33.1125 80.7323 32.6751 79.5998 32.5452C78.4673 32.4154 77.2459 32.6363 76.3913 33.3904C75.7077 33.9918 75.1722 34.9578 74.2607 34.9851C73.8164 35.001 73.4062 34.7778 73.0074 34.5841C71.8681 34.0374 70.4438 33.7276 69.4161 34.452C68.5958 35.0329 68.2882 36.0991 68.1537 37.0946C68.0193 38.0902 67.9874 39.145 67.5134 40.022C67.2194 40.5688 66.7728 41.0153 66.4036 41.5142C65.4654 42.7818 65.0243 44.3493 65.164 45.9201C65.2592 46.6969 65.4255 47.4633 65.6608 48.2096L66.5905 51.4924C67.0622 53.16 67.543 54.8504 68.4408 56.3334C69.3387 57.8165 70.7196 59.0922 72.4058 59.475C73.4222 59.7028 74.6527 59.516 75.2224 58.6434C75.3682 58.4156 75.4616 58.1719 75.6211 57.96C76.3275 57.0487 77.8064 57.411 78.8455 56.903C80.591 56.0509 80.4543 53.16 82.1998 52.308L82.3297 52.9618C83.5683 52.4964 84.7703 51.939 85.9256 51.2942C86.0187 51.5877 86.0058 51.9046 85.8891 52.1895C86.3753 52.2706 86.8738 52.2344 87.3431 52.0838C87.8125 51.9332 88.239 51.6726 88.5871 51.3238C88.7099 51.8162 88.6877 52.3336 88.5233 52.8137C90.164 52.4971 91.1667 50.875 92.5157 49.8886C92.6461 49.7796 92.8036 49.708 92.9714 49.6813C93.2608 49.6562 93.5024 49.8727 93.7462 50.0276C94.1685 50.2839 94.6653 50.3895 95.1553 50.327C95.6454 50.2645 96.0998 50.0377 96.4442 49.6836C97.162 48.9044 97.1939 47.7062 96.9638 46.6719C96.7336 45.6376 96.2801 44.6512 96.1822 43.5964C96.0386 42.1589 96.5399 40.6576 96.0796 39.2908C95.6899 38.1312 94.6691 37.2906 93.573 36.7393C92.4769 36.1879 91.2943 35.8667 90.1754 35.3724C89.1135 34.8962 88.1245 34.2584 87.0216 33.8825C85.4265 33.338 83.6924 33.3813 82.0084 33.4269" fill="#794F6A"/>
<path d="M83.0718 75.9824C83.0718 75.9824 84.8948 63.7192 69.2855 64.3252L61.4238 65.3709C61.4238 65.3709 68.9231 66.7195 70.7279 66.9177L70.9193 66.9451C72.5896 67.2503 78.3639 66.8699 83.0718 75.9824Z" fill="#0074AD"/>
<path opacity="0.1" d="M73.1016 124.887V124.746C79.5025 119.212 73.1016 124.887 73.1016 124.887Z" fill="black"/>
<path d="M59.3313 125.318C58.414 125.4 57.4912 125.4 56.574 125.318L37.3984 97.415C37.7516 96.4901 38.5971 95.9388 39.406 95.613L59.3313 125.318Z" fill="#4D44B5"/>
<path d="M46.8968 95.442L45.9854 96.5241C45.9854 96.5241 39.0717 85.0424 37.5859 79.2104C37.8685 78.5474 38.2946 78.4062 38.2946 78.4062C38.2946 78.4062 39.0147 77.8754 40.1746 77.0393C40.6053 79.7822 42.075 86.489 46.8968 95.442Z" fill="#4D44B5"/>
<path d="M51.9661 91.9064L50.1431 92.9315C45.1664 87.1086 44.7425 77.3264 44.7881 73.4285L46.1007 72.4854C46.2784 77.6043 51.9661 91.9064 51.9661 91.9064Z" fill="#4D44B5"/>
<path opacity="0.1" d="M56.7514 90.8857C56.6944 91.6261 54.5866 99.144 57.6629 100.397C60.7392 101.65 56.7514 90.8857 56.7514 90.8857Z" fill="black"/>
<path opacity="0.1" d="M63.3594 103.814C63.4733 104.213 64.4987 117.198 66.7205 116.173C68.9423 115.148 67.7459 100.34 67.7459 100.34L63.3594 103.814Z" fill="black"/>
<path opacity="0.1" d="M169.283 52.6316C169.287 56.3189 167.859 59.8639 165.299 62.5187C164.257 62.7395 163.182 62.758 162.132 62.5733C161.595 62.5054 161.085 62.3006 160.651 61.9787C160.232 61.5928 159.905 61.119 159.691 60.5914C158.86 58.803 158.434 56.7368 157.267 55.2059C156.1 53.675 153.733 53.0029 152.607 54.5725C151.994 55.4246 151.891 56.7345 151.073 57.3245C150.091 58.0353 148.795 57.1992 148.031 56.1855C145.775 53.2239 146.548 47.401 142.245 46.5832L142.072 46.5535C143.452 43.6126 145.793 41.2299 148.71 39.7989C151.627 38.3678 154.945 37.9739 158.116 38.6822C161.287 39.3905 164.121 41.1587 166.152 43.6948C168.182 46.2309 169.286 49.3833 169.283 52.6316Z" fill="black"/>
<path d="M142.474 46.3713C141.776 46.2369 140.968 46.2551 140.5 45.6537C140.225 45.2983 140.145 44.8062 140.079 44.3392C139.799 42.3208 139.646 40.1543 140.45 38.325C141.77 35.3247 145.165 34.3223 148.116 34.5456C151.067 34.7688 153.963 35.8692 156.914 35.6846C159.083 35.5434 161.223 34.705 163.386 34.9442C165.097 35.1356 166.692 35.9853 168.23 36.8533C169.67 37.6643 171.143 38.5368 172.163 39.9447C173.663 42.0064 173.945 44.8541 173.986 47.5263C174.037 50.6633 173.815 53.921 172.498 56.6821C170.589 60.6893 166.33 63.0745 162.36 62.3569C161.824 62.289 161.314 62.0842 160.879 61.7623C160.462 61.3757 160.135 60.9021 159.922 60.375C159.088 58.5844 158.662 56.5204 157.495 54.9872C156.328 53.454 153.961 52.7865 152.835 54.3562C152.222 55.2059 152.12 56.5181 151.302 57.1081C150.319 57.8166 149.023 56.9806 148.259 55.9691C146.004 53.0052 146.776 47.1869 142.474 46.3713Z" fill="#945B79"/>
<path d="M177.152 39.7487C179.324 40.7853 180.83 42.8037 182.245 44.747C183.423 46.3622 184.642 48.089 184.797 50.08C184.859 50.8956 184.738 51.7249 184.893 52.5268C185.437 55.3585 188.995 56.6274 190.034 59.3247C190.517 60.5959 190.364 62.0106 190.152 63.3547C189.848 65.299 189.437 67.2253 188.924 69.1252C188.616 70.2642 188.268 71.4489 188.502 72.6062C188.682 73.5037 189.186 74.292 189.587 75.1121C190.633 77.3242 190.813 79.8324 190.893 82.2768C190.973 84.7212 190.97 87.209 191.702 89.5418C192.433 91.8746 194.047 94.0798 196.373 94.8338C195.592 95.3665 194.686 95.6882 193.743 95.7679C193.604 96.5311 194.04 97.3079 194.655 97.7908C195.27 98.2738 196.022 98.5244 196.756 98.7636C196.255 99.1169 195.679 99.3493 195.074 99.4425C194.468 99.5358 193.849 99.4875 193.265 99.3012C192.292 98.9823 191.488 98.2989 190.71 97.6291L186.342 93.8725C185.758 93.4001 185.219 92.8755 184.731 92.3051C181.905 88.7945 183.592 83.4751 182.015 79.2583C180.73 75.8297 177.275 73.0458 177.592 69.3986C177.678 68.378 178.07 67.412 178.398 66.437C179.562 62.8995 179.928 59.1482 179.469 55.4526C179.01 51.7571 177.738 48.2091 175.744 45.0636C175.245 44.2891 174.666 43.5099 173.834 43.1113C172.569 42.5076 170.762 42.7673 170.045 41.5621C169.664 40.9265 169.589 39.808 169.555 39.0949C171.874 38.5641 174.983 38.7122 177.152 39.7487Z" fill="#945B79"/>
<path opacity="0.1" d="M66.1787 78.3196C67.2452 71.3121 76.0069 68.7811 80.6578 74.1369C82.0023 75.6906 83.194 77.3924 83.8685 79.0942C86.1473 84.8464 86.3182 85.359 86.3182 85.359C86.3182 85.359 72.247 88.0928 72.3609 90.1431L65.9805 79.9485C65.9805 79.9485 66.0283 79.3106 66.1787 78.3196Z" fill="black"/>
<path d="M66.1787 77.6362C67.2452 70.6287 76.0069 68.0977 80.6578 73.4536C82.0023 75.0073 83.194 76.709 83.8685 78.4108C86.1473 84.1631 86.3182 84.6757 86.3182 84.6757C86.3182 84.6757 72.247 87.4094 72.3609 89.4597L65.9805 79.2651C65.9805 79.2651 66.0283 78.6272 66.1787 77.6362Z" fill="#DCE6F2"/>
<path opacity="0.1" d="M70.1387 68.6445C70.3096 68.9293 77.0318 77.1305 80.5639 78.2992C84.0959 79.4679 70.1387 68.6445 70.1387 68.6445Z" fill="black"/>
<path opacity="0.1" d="M41.2559 95.1572C41.2559 95.1572 59.03 116.116 61.3087 124.602L41.2559 95.1572Z" fill="black"/>
<path opacity="0.1" d="M41.9395 75.7932C41.9395 75.7932 45.8133 95.8407 53.3331 104.27C60.853 112.699 68.6007 127.051 68.6007 127.051" stroke="black" stroke-width="2" stroke-miterlimit="10"/>
<g opacity="0.1">
<path d="M96.8584 46.6262C96.8737 47.2925 96.6434 47.9412 96.2112 48.4487C95.8668 48.8028 95.4124 49.0296 94.9224 49.0921C94.4323 49.1546 93.9355 49.0491 93.5132 48.7927C93.2694 48.6378 93.0278 48.4214 92.7384 48.4464C92.5706 48.4731 92.4131 48.5448 92.2827 48.6538C90.9998 49.5923 90.029 51.105 88.5228 51.5219C88.5761 51.9244 88.5356 52.3337 88.4043 52.7179C90.045 52.4013 91.0476 50.7792 92.3966 49.7928C92.527 49.6838 92.6845 49.6122 92.8524 49.5855C93.1418 49.5604 93.3833 49.7769 93.6272 49.9318C94.0494 50.1881 94.5462 50.2937 95.0363 50.2312C95.5264 50.1687 95.9808 49.9419 96.3252 49.5878C97.0293 48.8132 97.0726 47.6468 96.8584 46.6262Z" fill="black"/>
<path d="M95.9492 42.3525C95.9674 42.5393 95.9993 42.7239 96.0358 42.9084C96.0358 41.7693 96.307 40.5847 96.0358 39.4912C96.0403 40.4207 95.8535 41.4048 95.9492 42.3525Z" fill="black"/>
<path d="M88.3596 50.08C88.0115 50.4289 87.585 50.6894 87.1156 50.84C86.6463 50.9906 86.1478 51.0269 85.6616 50.9457C85.7783 50.6608 85.7912 50.3439 85.6981 50.0504C84.5428 50.6952 83.3408 51.2526 82.1022 51.718L81.9723 51.0642C80.2268 51.9162 80.3636 54.8072 78.618 55.6592C77.5789 56.1672 76.1114 55.8004 75.3936 56.7162C75.2341 56.9235 75.1407 57.1719 74.9949 57.3997C74.4252 58.2722 73.1947 58.4613 72.1783 58.2312C70.4875 57.8485 69.1089 56.5727 68.2133 55.0897C67.3178 53.6066 66.8347 51.9162 66.363 50.2486L65.4333 46.9659C65.2806 46.4191 65.1257 45.8723 65.0254 45.3142C65.0254 45.4828 65.0254 45.6491 65.0505 45.8154C65.1456 46.5922 65.3119 47.3585 65.5472 48.1049L66.4769 51.3877C66.9486 53.0553 67.4295 54.7457 68.3273 56.2287C69.2251 57.7118 70.606 58.9875 72.2923 59.3702C73.3086 59.5981 74.5391 59.4113 75.1088 58.5387C75.2546 58.3109 75.3481 58.0672 75.5076 57.8553C76.214 56.944 77.6929 57.3063 78.732 56.7982C80.4775 55.9462 80.3408 53.0553 82.0863 52.2033L82.2162 52.8571C83.4524 52.3914 84.6521 51.834 85.8052 51.1895C85.8983 51.483 85.8854 51.7998 85.7687 52.0848C86.2311 52.1613 86.7048 52.1317 87.154 51.9983C87.6033 51.8649 88.0163 51.6312 88.3619 51.3148C88.4591 50.9089 88.4583 50.4856 88.3596 50.08Z" fill="black"/>
</g>
<path opacity="0.1" d="M83.9618 65.0997C82.7359 65.8059 79.8874 67.3778 79.3109 67.109C78.6957 66.8242 71.9825 64.4755 69.7402 63.6918C69.8884 62.9309 70.4239 60.9945 72.199 60.3589C72.5584 60.2623 72.9355 60.2521 73.2996 60.3293L80.1085 63.022C82.0158 63.9902 83.5995 64.8901 83.9618 65.0997Z" fill="black"/>
<path d="M83.9618 64.4163C82.7359 65.1226 79.8874 66.6945 79.3109 66.4256C78.6957 66.1409 71.9825 63.7921 69.7402 63.0085C69.8884 62.2476 70.4239 60.3112 72.199 59.6756C72.5584 59.5789 72.9355 59.5688 73.2996 59.6459L80.1085 62.3387C82.0158 63.3069 83.5995 64.2068 83.9618 64.4163Z" fill="#DCE6F2"/>
<path opacity="0.1" d="M173.992 47.2552C173.926 49.8227 173.577 52.3901 172.508 54.6341C170.599 58.6413 166.34 61.0265 162.37 60.3089C161.834 60.241 161.324 60.0362 160.889 59.7143C160.472 59.3277 160.145 58.854 159.932 58.3269C159.098 56.5363 158.672 54.4723 157.505 52.9392C156.339 51.406 153.971 50.7385 152.845 52.3081C152.232 53.1579 152.13 54.4701 151.312 55.0601C150.33 55.7686 149.033 54.9325 148.27 53.921C146.014 50.9595 146.786 45.1343 142.484 44.3187C141.787 44.1843 140.978 44.2026 140.51 43.6011C140.235 43.2457 140.155 42.7537 140.089 42.2866C140.011 41.7376 139.945 41.1772 139.907 40.6145C139.827 41.8582 139.889 43.1069 140.089 44.337C140.155 44.804 140.235 45.2961 140.51 45.6514C140.978 46.2529 141.787 46.2346 142.484 46.369C146.786 47.1846 146.014 53.003 148.27 55.9714C149.031 56.9715 150.32 57.8075 151.312 57.1104C152.13 56.5204 152.223 55.2082 152.845 54.3584C153.971 52.7888 156.339 53.4586 157.505 54.9895C158.672 56.5204 159.1 58.5866 159.932 60.3772C160.145 60.9043 160.472 61.378 160.889 61.7646C161.324 62.0865 161.834 62.2913 162.37 62.3592C166.34 63.0768 170.599 60.6916 172.508 56.6844C173.826 53.9233 174.047 50.6656 173.996 47.5286C173.992 47.4284 173.992 47.3373 173.992 47.2552Z" fill="black"/>
<g opacity="0.1">
<path d="M188.893 58.1902C189.377 59.4614 189.224 60.8761 189.012 62.2202C188.707 64.163 188.297 66.0878 187.784 67.9861C187.476 69.1252 187.127 70.3098 187.362 71.4671C187.542 72.3647 188.046 73.1529 188.447 73.9731C189.493 76.1851 189.673 78.6933 189.753 81.1378C189.832 83.5822 189.83 86.0699 190.561 88.4027C191.035 89.9925 191.941 91.4199 193.177 92.5261C192.524 91.6511 192.025 90.6711 191.701 89.6283C190.969 87.2955 190.969 84.8078 190.892 82.3634C190.814 79.919 190.632 77.4107 189.586 75.201C189.194 74.374 188.675 73.5858 188.501 72.695C188.274 71.5377 188.615 70.3508 188.923 69.2118C189.437 67.3082 189.847 65.378 190.151 63.4299C190.363 62.0858 190.516 60.6688 190.033 59.3976C189.643 58.3793 188.893 57.5751 188.08 56.7937C188.421 57.2151 188.695 57.686 188.893 58.1902Z" fill="black"/>
<path d="M196.373 94.9249C195.764 94.7236 195.192 94.4251 194.678 94.041C194.033 94.3762 193.328 94.5807 192.604 94.6424C192.465 95.4056 192.9 96.1825 193.516 96.6654C193.638 96.7638 193.767 96.8529 193.903 96.932C193.744 96.598 193.691 96.2238 193.75 95.859C194.69 95.776 195.593 95.4545 196.373 94.9249Z" fill="black"/>
<path d="M172.688 41.9905C171.819 41.5758 170.696 41.5667 169.844 41.2136C169.892 41.3719 169.957 41.5247 170.037 41.6692C170.755 42.8721 172.562 42.6124 173.827 43.2184C173.987 43.2985 174.139 43.3923 174.283 43.4986C173.887 42.8688 173.339 42.3499 172.688 41.9905Z" fill="black"/>
<path d="M194.873 98.0573C194 98.4294 193.022 98.4755 192.118 98.1872C191.145 97.8683 190.34 97.1848 189.563 96.5151L185.195 92.7584C184.988 92.5807 184.783 92.4008 184.582 92.2185C184.628 92.28 184.673 92.3438 184.723 92.4053C185.211 92.9763 185.75 93.501 186.334 93.9727L190.703 97.7316C191.48 98.3991 192.284 99.0848 193.257 99.4037C193.841 99.5896 194.46 99.6376 195.066 99.5439C195.672 99.4502 196.248 99.2174 196.748 98.8638C196.089 98.6831 195.458 98.4117 194.873 98.0573Z" fill="black"/>
<path d="M181.105 43.6102C182.283 45.2254 183.502 46.9522 183.657 48.9433C183.718 49.7589 183.598 50.5881 183.752 51.39C183.999 52.6726 184.867 53.6362 185.837 54.5543C185.368 53.9917 185.044 53.323 184.892 52.6065C184.737 51.8023 184.858 50.9731 184.796 50.1575C184.641 48.1664 183.429 46.4396 182.244 44.8267C181.387 43.6489 180.494 42.4461 179.443 41.4482C180.029 42.1408 180.574 42.8789 181.105 43.6102Z" fill="black"/>
</g>
<path opacity="0.1" d="M171.107 38.8877C171.107 38.8877 169.74 41.1658 173.614 43.0635L173.842 42.4552L171.107 38.8877Z" fill="black"/>
<path d="M170.881 38.8877C170.881 38.8877 169.513 41.1658 173.387 43.0635L173.615 42.4552L170.881 38.8877Z" fill="#FF6584"/>
<path d="M224.819 167.827C224.819 167.827 226.073 169.465 224.243 171.928C222.413 174.391 220.904 176.484 221.508 178.027C221.508 178.027 224.27 173.436 226.522 173.372C228.773 173.309 227.292 170.588 224.819 167.827Z" fill="#0074AD"/>
<path opacity="0.1" d="M224.82 167.827C224.929 167.985 225.016 168.158 225.077 168.34C227.269 170.917 228.436 173.32 226.328 173.379C224.366 173.436 222.012 176.944 221.447 177.831C221.465 177.899 221.488 177.965 221.513 178.033C221.513 178.033 224.275 173.443 226.527 173.379C228.778 173.315 227.292 170.588 224.82 167.827Z" fill="black"/>
<path d="M227.149 169.914C227.149 170.491 227.083 170.958 227.003 170.958C226.923 170.958 226.859 170.502 226.859 169.914C226.859 169.326 226.939 169.609 227.019 169.609C227.099 169.609 227.149 169.338 227.149 169.914Z" fill="#FFD037"/>
<path d="M227.946 170.602C227.44 170.878 226.998 171.044 226.961 170.973C226.925 170.903 227.301 170.622 227.807 170.347C228.313 170.071 228.114 170.272 228.153 170.347C228.192 170.422 228.454 170.326 227.946 170.602Z" fill="#FFD037"/>
<path d="M218.2 167.827C218.2 167.827 216.946 169.465 218.776 171.928C220.606 174.391 222.115 176.484 221.511 178.027C221.511 178.027 218.751 173.436 216.498 173.372C214.244 173.309 215.736 170.588 218.2 167.827Z" fill="#0074AD"/>
<path opacity="0.1" d="M218.201 167.827C218.091 167.985 218.005 168.158 217.943 168.34C215.751 170.917 214.584 173.32 216.692 173.379C218.654 173.436 221.008 176.944 221.573 177.831C221.555 177.9 221.532 177.967 221.505 178.033C221.505 178.033 218.745 173.443 216.492 173.379C214.238 173.315 215.737 170.588 218.201 167.827Z" fill="black"/>
<path d="M215.881 169.914C215.881 170.491 215.947 170.958 216.027 170.958C216.106 170.958 216.17 170.502 216.17 169.914C216.17 169.326 216.091 169.609 216.011 169.609C215.931 169.609 215.881 169.338 215.881 169.914Z" fill="#FFD037"/>
<path d="M215.084 170.602C215.59 170.878 216.029 171.044 216.068 170.973C216.107 170.903 215.729 170.622 215.223 170.347C214.717 170.071 214.915 170.272 214.876 170.347C214.838 170.422 214.578 170.326 215.084 170.602Z" fill="#FFD037"/>
<path d="M216.279 177.819C216.279 177.819 219.779 177.71 220.837 176.96C221.894 176.211 226.221 175.311 226.483 176.505C226.746 177.698 231.743 182.494 227.791 182.526C223.84 182.558 218.61 181.911 217.558 181.27C216.505 180.63 216.279 177.819 216.279 177.819Z" fill="#A8A8A8"/>
<path opacity="0.2" d="M227.86 182.12C223.909 182.152 218.679 181.505 217.626 180.865C216.824 180.375 216.505 178.623 216.398 177.817H216.279C216.279 177.817 216.507 180.639 217.555 181.282C218.604 181.924 223.838 182.569 227.789 182.537C228.929 182.537 229.323 182.123 229.302 181.521C229.138 181.892 228.708 182.12 227.86 182.12Z" fill="black"/>
<path d="M59.8483 173.803C60.2667 173.463 60.5718 173.004 60.7233 172.486C60.835 171.962 60.6117 171.333 60.1126 171.142C59.5521 170.928 58.9528 171.317 58.4993 171.709C58.0458 172.101 57.524 172.55 56.9292 172.466C57.2351 172.189 57.4639 171.837 57.5933 171.446C57.7227 171.054 57.7483 170.635 57.6676 170.231C57.6416 170.063 57.5707 169.906 57.4625 169.775C57.1526 169.443 56.5874 169.586 56.2137 169.848C55.0288 170.68 54.6984 172.29 54.6938 173.737C54.573 173.215 54.6733 172.671 54.671 172.142C54.6687 171.614 54.5206 171.003 54.0694 170.725C53.7907 170.571 53.4765 170.492 53.1579 170.497C52.6247 170.477 52.0322 170.532 51.6676 170.921C51.2119 171.404 51.3327 172.217 51.7269 172.744C52.1211 173.27 52.7181 173.612 53.2673 173.978C53.7093 174.241 54.0863 174.6 54.3702 175.029C54.4034 175.089 54.4309 175.152 54.4523 175.218H57.7769C58.5282 174.842 59.225 174.366 59.8483 173.803Z" fill="#1A8037"/>
<path d="M33.3182 177.395C33.3182 177.395 30.128 166.529 33.9175 158.528C35.5332 155.183 36.0209 151.405 35.3075 147.759C34.9535 146.031 34.4425 144.339 33.7808 142.704" stroke="#535461" stroke-width="2" stroke-miterlimit="10"/>
<path d="M36.1467 137.649C36.1467 138.979 33.7335 142.843 33.7335 142.843C33.7335 142.843 31.3203 138.97 31.3203 137.649C31.3203 137.009 31.5746 136.395 32.0271 135.943C32.4797 135.491 33.0935 135.236 33.7335 135.236C34.3735 135.236 34.9873 135.491 35.4399 135.943C35.8924 136.395 36.1467 137.009 36.1467 137.649Z" fill="#0074AD"/>
<path d="M40.1363 145.026C39.4116 146.144 35.2871 148.076 35.2871 148.076C35.2871 148.076 35.36 143.52 36.0847 142.406C36.4388 141.884 36.9833 141.521 37.6016 141.396C38.2198 141.27 38.8627 141.392 39.3924 141.734C39.9222 142.077 40.2967 142.613 40.4357 143.228C40.5747 143.843 40.4672 144.489 40.1363 145.026Z" fill="#0074AD"/>
<path d="M39.9608 157.635C38.7713 158.234 34.2344 157.819 34.2344 157.819C34.2344 157.819 36.5997 153.928 37.7892 153.327C38.0729 153.177 38.3837 153.085 38.7034 153.056C39.0232 153.027 39.3454 153.063 39.6512 153.16C39.9571 153.258 40.2404 153.415 40.4847 153.623C40.7289 153.832 40.9291 154.087 41.0736 154.373C41.218 154.66 41.3039 154.972 41.326 155.292C41.3482 155.613 41.3062 155.934 41.2026 156.238C41.099 156.541 40.9358 156.821 40.7225 157.061C40.5093 157.301 40.2504 157.496 39.9608 157.635Z" fill="#0074AD"/>
<path d="M37.6789 167.144C36.6079 167.937 32.0664 168.283 32.0664 168.283C32.0664 168.283 33.739 164.048 34.8009 163.255C35.0537 163.048 35.346 162.894 35.66 162.804C35.974 162.713 36.3032 162.687 36.6276 162.727C36.952 162.767 37.2649 162.873 37.5472 163.037C37.8295 163.202 38.0754 163.423 38.27 163.685C38.4645 163.948 38.6037 164.247 38.679 164.565C38.7543 164.883 38.7642 165.213 38.708 165.535C38.6519 165.857 38.531 166.164 38.3525 166.438C38.174 166.712 37.9418 166.947 37.6698 167.128L37.6789 167.144Z" fill="#0074AD"/>
<path d="M30.2209 148.333C31.1757 149.263 35.6284 150.224 35.6284 150.224C35.6284 150.224 34.5369 145.802 33.5775 144.873C33.3522 144.643 33.0832 144.46 32.7861 144.335C32.4891 144.211 32.1702 144.147 31.8481 144.147C31.526 144.148 31.2072 144.213 30.9107 144.339C30.6141 144.465 30.3458 144.648 30.1214 144.879C29.897 145.11 29.7211 145.384 29.6042 145.684C29.4872 145.984 29.4315 146.304 29.4404 146.626C29.4492 146.948 29.5224 147.265 29.6557 147.558C29.789 147.851 29.9796 148.115 30.2164 148.333H30.2209Z" fill="#0074AD"/>
<path d="M27.6989 159.489C28.8884 160.089 33.4254 159.676 33.4254 159.676C33.4254 159.676 31.0623 155.783 29.8705 155.184C29.5877 155.041 29.2796 154.956 28.9638 154.932C28.648 154.909 28.3306 154.948 28.0298 155.047C27.729 155.146 27.4507 155.303 27.2108 155.51C26.9708 155.716 26.7739 155.968 26.6313 156.251C26.4887 156.534 26.4032 156.842 26.3797 157.158C26.3562 157.473 26.3951 157.791 26.4942 158.091C26.5934 158.392 26.7508 158.67 26.9575 158.91C27.1642 159.15 27.4161 159.347 27.6989 159.489Z" fill="#0074AD"/>
<path d="M26.7278 170.67C27.7988 171.461 32.3403 171.809 32.3403 171.809C32.3403 171.809 30.6677 167.572 29.6058 166.779C29.0905 166.436 28.4627 166.303 27.8524 166.41C27.2421 166.516 26.6961 166.853 26.3274 167.351C25.9588 167.848 25.7956 168.469 25.8719 169.083C25.9481 169.698 26.2578 170.26 26.7369 170.652L26.7278 170.67Z" fill="#0074AD"/>
<path d="M36.1467 137.649C36.1467 138.979 33.7335 142.843 33.7335 142.843C33.7335 142.843 31.3203 138.97 31.3203 137.649C31.3203 137.009 31.5746 136.395 32.0271 135.943C32.4797 135.491 33.0935 135.236 33.7335 135.236C34.3735 135.236 34.9873 135.491 35.4399 135.943C35.8924 136.395 36.1467 137.009 36.1467 137.649Z" fill="#1A8037"/>
<path d="M40.1363 145.026C39.4116 146.144 35.2871 148.076 35.2871 148.076C35.2871 148.076 35.36 143.52 36.0847 142.406C36.4388 141.884 36.9833 141.521 37.6016 141.396C38.2198 141.27 38.8627 141.392 39.3924 141.734C39.9222 142.077 40.2967 142.613 40.4357 143.228C40.5747 143.843 40.4672 144.489 40.1363 145.026Z" fill="#1A8037"/>
<path d="M39.9608 157.635C38.7713 158.234 34.2344 157.819 34.2344 157.819C34.2344 157.819 36.5997 153.928 37.7892 153.327C38.0729 153.177 38.3837 153.085 38.7034 153.056C39.0232 153.027 39.3454 153.063 39.6512 153.16C39.9571 153.258 40.2404 153.415 40.4847 153.623C40.7289 153.832 40.9291 154.087 41.0736 154.373C41.218 154.66 41.3039 154.972 41.326 155.292C41.3482 155.613 41.3062 155.934 41.2026 156.238C41.099 156.541 40.9358 156.821 40.7225 157.061C40.5093 157.301 40.2504 157.496 39.9608 157.635Z" fill="#1A8037"/>
<path d="M37.6789 167.144C36.6079 167.937 32.0664 168.283 32.0664 168.283C32.0664 168.283 33.739 164.048 34.8009 163.255C35.0537 163.048 35.346 162.894 35.66 162.804C35.974 162.713 36.3032 162.687 36.6276 162.727C36.952 162.767 37.2649 162.873 37.5472 163.037C37.8295 163.202 38.0754 163.423 38.27 163.685C38.4645 163.948 38.6037 164.247 38.679 164.565C38.7543 164.883 38.7642 165.213 38.708 165.535C38.6519 165.857 38.531 166.164 38.3525 166.438C38.174 166.712 37.9418 166.947 37.6698 167.128L37.6789 167.144Z" fill="#1A8037"/>
<path d="M30.2209 148.333C31.1757 149.263 35.6284 150.224 35.6284 150.224C35.6284 150.224 34.5369 145.802 33.5775 144.873C33.3522 144.643 33.0832 144.46 32.7861 144.335C32.4891 144.211 32.1702 144.147 31.8481 144.147C31.526 144.148 31.2072 144.213 30.9107 144.339C30.6141 144.465 30.3458 144.648 30.1214 144.879C29.897 145.11 29.7211 145.384 29.6042 145.684C29.4872 145.984 29.4315 146.304 29.4404 146.626C29.4492 146.948 29.5224 147.265 29.6557 147.558C29.789 147.851 29.9796 148.115 30.2164 148.333H30.2209Z" fill="#1A8037"/>
<path d="M27.6989 159.489C28.8884 160.089 33.4254 159.676 33.4254 159.676C33.4254 159.676 31.0623 155.783 29.8705 155.184C29.5877 155.041 29.2796 154.956 28.9638 154.932C28.648 154.909 28.3306 154.948 28.0298 155.047C27.729 155.146 27.4507 155.303 27.2108 155.51C26.9708 155.716 26.7739 155.968 26.6313 156.251C26.4887 156.534 26.4032 156.842 26.3797 157.158C26.3562 157.473 26.3951 157.791 26.4942 158.091C26.5934 158.392 26.7508 158.67 26.9575 158.91C27.1642 159.15 27.4161 159.347 27.6989 159.489Z" fill="#1A8037"/>
<path d="M26.7278 170.67C27.7988 171.461 32.3403 171.809 32.3403 171.809C32.3403 171.809 30.6677 167.572 29.6058 166.779C29.0905 166.436 28.4627 166.303 27.8524 166.41C27.2421 166.516 26.6961 166.853 26.3274 167.351C25.9588 167.848 25.7956 168.469 25.8719 169.083C25.9481 169.698 26.2578 170.26 26.7369 170.652L26.7278 170.67Z" fill="#1A8037"/>
<path d="M25.75 176.712C25.75 176.712 29.6489 175.937 30.688 174.905C31.7271 173.873 36.4076 172.067 36.9272 173.356C37.4467 174.646 43.9457 179.033 39.5272 179.808C35.1088 180.583 29.1294 180.84 27.8282 180.323C26.5271 179.806 25.75 176.712 25.75 176.712Z" fill="#A8A8A8"/>
<path opacity="0.2" d="M39.5272 179.327C35.1065 180.102 29.1294 180.359 27.8282 179.844C26.8392 179.45 26.1511 177.566 25.8799 176.685L25.75 176.712C25.75 176.712 26.5293 179.808 27.8282 180.323C29.1271 180.838 35.1065 180.582 39.5272 179.808C40.801 179.58 41.1656 179.058 41.0289 178.395C40.915 178.828 40.4752 179.159 39.5272 179.327Z" fill="black"/>
</g>
<defs>
<linearGradient id="paint0_linear_150_1455" x1="116.987" y1="183.699" x2="116.987" y2="31.2741" gradientUnits="userSpaceOnUse">
<stop stop-color="#808080" stop-opacity="0.25"/>
<stop offset="0.54" stop-color="#808080" stop-opacity="0.12"/>
<stop offset="1" stop-color="#808080" stop-opacity="0.1"/>
</linearGradient>
<clipPath id="clip0_150_1455">
<rect width="250" height="187" fill="white"/>
</clipPath>
</defs>
</svg>
